<?xml version="1.0" encoding="utf-8"?>
<svg version="1.1" id="Layer_1" xmlns="http://www.w3.org/2000/svg" xmlns:xlink="http://www.w3.org/1999/xlink" x="0px" y="0px"
	 viewBox="0 0 1673.282 1673.545" enable-background="new 0 0 1673.282 1673.545" xml:space="preserve">
<g>
	<g>
		<g>
			<g>
				<path fill="#B0FF8B" d="M836.282,36.772c-208.842,0.082-417.954,86.699-565.685,234.315
					C122.981,418.819,36.364,627.931,36.282,836.772c0.082,208.842,86.699,417.954,234.315,565.685
					c147.732,147.615,356.844,234.233,565.685,234.315c-208.842-0.082-417.954-86.699-565.685-234.315
					C122.981,1254.726,36.364,1045.614,36.282,836.772c0.082-208.842,86.699-417.954,234.315-565.685
					C418.328,123.471,627.44,36.854,836.282,36.772z"/>
				<path fill="#B0FF8B" d="M836.282,36.772c-208.842,0.082-417.954,86.699-565.685,234.315
					C122.981,418.819,36.364,627.931,36.282,836.772c0.082,208.842,86.699,417.954,234.315,565.685
					c147.732,147.615,356.844,234.233,565.685,234.315c-208.842-0.082-417.954-86.699-565.685-234.315
					C122.981,1254.726,36.364,1045.614,36.282,836.772c0.082-208.842,86.699-417.954,234.315-565.685
					C418.328,123.471,627.44,36.854,836.282,36.772z"/>
				<path fill="#A9FF82" d="M836.282,36.772c-208.842,0.082-417.954,86.699-565.685,234.315
					C122.981,418.819,36.364,627.931,36.282,836.772c0.082,208.842,86.699,417.954,234.315,565.685
					c147.732,147.615,356.844,234.233,565.685,234.315c-208.842-0.082-417.954-86.699-565.685-234.315
					C122.981,1254.726,36.364,1045.614,36.282,836.772c0.082-208.842,86.699-417.954,234.315-565.685
					C418.328,123.471,627.44,36.854,836.282,36.772z"/>
				<path fill="#A2FF78" d="M836.282,36.772c-208.842,0.082-417.954,86.699-565.685,234.315
					C122.981,418.819,36.364,627.931,36.282,836.772c0.082,208.842,86.699,417.954,234.315,565.685
					c147.732,147.615,356.844,234.233,565.685,234.315c-208.842-0.082-417.954-86.699-565.685-234.315
					C122.981,1254.726,36.364,1045.614,36.282,836.772c0.082-208.842,86.699-417.954,234.315-565.685
					C418.328,123.471,627.44,36.854,836.282,36.772z"/>
				<path fill="#9AFF6F" d="M836.282,36.772c-208.842,0.082-417.954,86.699-565.685,234.315
					C122.981,418.819,36.364,627.931,36.282,836.772c0.082,208.842,86.699,417.954,234.315,565.685
					c147.732,147.615,356.844,234.233,565.685,234.315c-208.842-0.082-417.954-86.699-565.685-234.315
					C122.981,1254.726,36.364,1045.614,36.282,836.772c0.082-208.842,86.699-417.954,234.315-565.685
					C418.328,123.471,627.44,36.854,836.282,36.772z"/>
				<path fill="#93FF65" d="M836.282,36.772c-208.842,0.082-417.954,86.699-565.685,234.315
					C122.981,418.819,36.364,627.931,36.282,836.772c0.082,208.842,86.699,417.954,234.315,565.685
					c147.732,147.615,356.844,234.233,565.685,234.315c-208.842-0.082-417.954-86.699-565.685-234.315
					C122.981,1254.726,36.364,1045.614,36.282,836.772c0.082-208.842,86.699-417.954,234.315-565.685
					C418.328,123.471,627.44,36.854,836.282,36.772z"/>
				<path fill="#8CFF5C" d="M836.282,36.772c-208.842,0.082-417.954,86.699-565.685,234.315
					C122.981,418.819,36.364,627.931,36.282,836.772c0.082,208.842,86.699,417.954,234.315,565.685
					c147.732,147.615,356.844,234.233,565.685,234.315c-208.842-0.082-417.954-86.699-565.685-234.315
					C122.981,1254.726,36.364,1045.614,36.282,836.772c0.082-208.842,86.699-417.954,234.315-565.685
					C418.328,123.471,627.44,36.854,836.282,36.772z"/>
				<path fill="#8CFF5C" d="M836.282,36.772c-208.842,0.079-417.957,86.693-565.692,234.308
					C122.971,418.812,36.351,627.927,36.269,836.772c0.082,208.845,86.702,417.96,234.321,565.692
					c147.735,147.615,356.85,234.23,565.692,234.308l0,0c-208.842-0.082-417.954-86.699-565.685-234.315
					C122.981,1254.726,36.364,1045.614,36.282,836.772c0.082-208.842,86.699-417.954,234.315-565.685
					C418.328,123.471,627.44,36.854,836.282,36.772L836.282,36.772z"/>
				<path fill="#89F761" d="M836.282,36.772c-208.843,0.075-417.96,86.687-565.698,234.302
					C122.961,418.806,36.338,627.924,36.256,836.772c0.082,208.849,86.705,417.966,234.327,565.698
					c147.738,147.615,356.855,234.226,565.698,234.302l0,0c-208.842-0.079-417.957-86.693-565.692-234.308
					C122.971,1254.733,36.351,1045.618,36.269,836.772c0.082-208.845,86.702-417.96,234.321-565.692
					C418.324,123.465,627.439,36.851,836.282,36.772L836.282,36.772z"/>
				<path fill="#86EF67" d="M836.282,36.772c-208.843,0.072-417.964,86.681-565.704,234.295
					C122.951,418.8,36.325,627.921,36.243,836.772c0.082,208.852,86.708,417.973,234.334,565.705
					c147.741,147.615,356.861,234.223,565.704,234.295l0,0c-208.843-0.075-417.96-86.687-565.698-234.302
					c-147.623-147.732-234.245-356.85-234.327-565.698c0.082-208.849,86.705-417.966,234.327-565.698
					C418.321,123.459,627.439,36.848,836.282,36.772L836.282,36.772z"/>
				<path fill="#83E66C" d="M836.282,36.772c-208.843,0.069-417.967,86.674-565.711,234.289
					C122.941,418.794,36.313,627.917,36.231,836.772c0.082,208.855,86.711,417.979,234.34,565.711
					c147.744,147.615,356.867,234.22,565.711,234.289l0,0c-208.843-0.072-417.964-86.681-565.704-234.295
					C122.951,1254.745,36.325,1045.624,36.243,836.772c0.082-208.852,86.708-417.973,234.334-565.705
					C418.318,123.453,627.438,36.844,836.282,36.772L836.282,36.772z"/>
				<path fill="#80DE71" d="M836.282,36.772c-208.844,0.065-417.97,86.668-565.717,234.282
					C122.932,418.787,36.3,627.914,36.218,836.772c0.082,208.858,86.713,417.985,234.346,565.718
					c147.747,147.614,356.873,234.217,565.717,234.282l0,0c-208.843-0.069-417.967-86.674-565.711-234.289
					c-147.63-147.732-234.258-356.856-234.34-565.711c0.082-208.855,86.711-417.979,234.34-565.711
					C418.315,123.447,627.438,36.841,836.282,36.772L836.282,36.772z"/>
				<path fill="#7DD676" d="M836.282,36.772c-208.844,0.062-417.973,86.662-565.723,234.276
					C122.922,418.781,36.288,627.911,36.206,836.772c0.082,208.862,86.716,417.991,234.353,565.724
					c147.75,147.614,356.879,234.214,565.723,234.276l0,0c-208.844-0.065-417.97-86.668-565.717-234.282
					C122.932,1254.758,36.3,1045.631,36.218,836.772c0.082-208.858,86.713-417.985,234.346-565.718
					C418.312,123.441,627.438,36.838,836.282,36.772L836.282,36.772z"/>
				<path fill="#7ACE7C" d="M836.282,36.772c-208.844,0.059-417.976,86.656-565.729,234.27
					C122.912,418.775,36.275,627.907,36.193,836.772c0.082,208.865,86.719,417.997,234.359,565.73
					c147.753,147.614,356.885,234.211,565.729,234.27l0,0c-208.844-0.062-417.973-86.662-565.723-234.276
					C122.922,1254.764,36.288,1045.634,36.206,836.772c0.082-208.862,86.716-417.991,234.353-565.724
					C418.308,123.434,627.437,36.834,836.282,36.772L836.282,36.772z"/>
				<path fill="#77C581" d="M836.282,36.772c-208.845,0.055-417.979,86.65-565.735,234.263
					C122.903,418.769,36.263,627.904,36.181,836.772c0.082,208.868,86.722,418.004,234.365,565.737
					c147.756,147.614,356.89,234.208,565.735,234.263l0,0c-208.844-0.059-417.976-86.656-565.729-234.27
					c-147.64-147.733-234.277-356.865-234.359-565.73c0.082-208.865,86.719-417.998,234.359-565.73
					C418.305,123.428,627.437,36.831,836.282,36.772L836.282,36.772z"/>
				<path fill="#75BD86" d="M836.282,36.772c-208.845,0.052-417.982,86.644-565.741,234.257
					C122.894,418.762,36.251,627.901,36.169,836.772c0.082,208.872,86.725,418.01,234.372,565.743
					c147.759,147.613,356.896,234.205,565.741,234.257l0,0c-208.845-0.055-417.979-86.65-565.735-234.263
					C122.903,1254.776,36.263,1045.641,36.181,836.772c0.082-208.868,86.722-418.004,234.365-565.737
					C418.302,123.422,627.437,36.828,836.282,36.772L836.282,36.772z"/>
				<path fill="#72B58B" d="M836.282,36.772c-208.845,0.048-417.985,86.637-565.747,234.25
					C122.884,418.756,36.239,627.898,36.157,836.772c0.082,208.875,86.727,418.016,234.378,565.75
					c147.762,147.613,356.902,234.202,565.747,234.25l0,0c-208.845-0.052-417.982-86.644-565.741-234.257
					C122.894,1254.782,36.251,1045.644,36.169,836.772c0.082-208.872,86.725-418.01,234.372-565.743
					C418.299,123.416,627.437,36.824,836.282,36.772L836.282,36.772z"/>
				<path fill="#6FAD91" d="M836.282,36.772c-208.846,0.045-417.988,86.631-565.753,234.244
					C122.875,418.75,36.227,627.894,36.145,836.772c0.082,208.878,86.73,418.022,234.384,565.756
					c147.765,147.613,356.907,234.199,565.753,234.244l0,0c-208.845-0.048-417.985-86.637-565.747-234.25
					c-147.65-147.734-234.296-356.875-234.378-565.75c0.082-208.875,86.727-418.016,234.378-565.75
					C418.296,123.41,627.436,36.821,836.282,36.772L836.282,36.772z"/>
				<path fill="#6CA596" d="M836.282,36.772C627.436,36.814,418.29,123.397,270.523,271.01
					C122.866,418.744,36.215,627.891,36.133,836.772c0.082,208.881,86.733,418.029,234.39,565.762
					c147.768,147.612,356.913,234.196,565.759,234.238l0,0c-208.846-0.045-417.988-86.631-565.753-234.244
					C122.875,1254.795,36.227,1045.651,36.145,836.772c0.082-208.878,86.73-418.022,234.384-565.756
					C418.293,123.404,627.436,36.818,836.282,36.772L836.282,36.772z"/>
				<path fill="#699C9B" d="M836.282,36.772c-208.846,0.038-417.994,86.619-565.765,234.231
					C122.856,418.738,36.203,627.888,36.121,836.772c0.082,208.885,86.736,418.035,234.396,565.769
					c147.771,147.612,356.919,234.193,565.765,234.231l0,0c-208.846-0.042-417.991-86.625-565.759-234.238
					c-147.657-147.734-234.308-356.881-234.39-565.762c0.082-208.881,86.733-418.029,234.39-565.763
					C418.29,123.397,627.436,36.814,836.282,36.772L836.282,36.772z"/>
				<path fill="#6694A0" d="M836.282,36.772c-208.846,0.035-417.997,86.613-565.77,234.225
					C122.847,418.731,36.191,627.884,36.109,836.772c0.082,208.888,86.738,418.041,234.402,565.775
					c147.774,147.612,356.924,234.19,565.77,234.225l0,0c-208.846-0.038-417.994-86.619-565.765-234.231
					C122.856,1254.807,36.203,1045.657,36.121,836.772c0.082-208.885,86.736-418.035,234.396-565.769
					C418.288,123.391,627.436,36.811,836.282,36.772L836.282,36.772z"/>
				<path fill="#638CA6" d="M836.282,36.772c-208.846,0.032-418,86.607-565.776,234.218
					C122.838,418.725,36.179,627.881,36.097,836.772c0.082,208.891,86.741,418.047,234.409,565.782
					c147.776,147.612,356.93,234.187,565.776,234.218l0,0c-208.846-0.035-417.997-86.613-565.77-234.225
					c-147.664-147.734-234.32-356.887-234.402-565.775c0.082-208.888,86.738-418.041,234.402-565.775
					C418.285,123.385,627.435,36.808,836.282,36.772L836.282,36.772z"/>
				<path fill="#6084AB" d="M836.282,36.772c-208.846,0.028-418.002,86.6-565.782,234.212
					C122.829,418.719,36.167,627.878,36.085,836.772c0.082,208.895,86.744,418.053,234.415,565.788
					c147.779,147.611,356.935,234.183,565.782,234.212l0,0c-208.846-0.032-418-86.607-565.776-234.218
					C122.838,1254.82,36.179,1045.664,36.097,836.772c0.082-208.891,86.741-418.047,234.409-565.782
					C418.282,123.379,627.435,36.804,836.282,36.772L836.282,36.772z"/>
				<path fill="#5D7BB0" d="M836.282,36.772c-208.847,0.025-418.005,86.594-565.787,234.205
					C122.82,418.713,36.156,627.875,36.074,836.772c0.082,208.898,86.747,418.06,234.421,565.795
					c147.782,147.611,356.941,234.18,565.787,234.205l0,0c-208.846-0.028-418.002-86.6-565.782-234.212
					C122.829,1254.826,36.167,1045.667,36.085,836.772c0.082-208.895,86.744-418.053,234.415-565.788
					C418.279,123.373,627.435,36.801,836.282,36.772L836.282,36.772z"/>
				<path fill="#5A73B5" d="M836.282,36.772c-208.847,0.022-418.008,86.588-565.793,234.199
					C122.812,418.707,36.144,627.871,36.062,836.772c0.082,208.901,86.749,418.066,234.427,565.801
					c147.785,147.611,356.946,234.177,565.793,234.199l0,0c-208.847-0.025-418.005-86.594-565.787-234.205
					C122.82,1254.832,36.156,1045.67,36.074,836.772c0.082-208.898,86.747-418.06,234.421-565.795
					C418.277,123.367,627.435,36.797,836.282,36.772L836.282,36.772z"/>
				<path fill="#576BBB" d="M836.282,36.772c-208.847,0.018-418.01,86.582-565.798,234.192
					C122.803,418.7,36.133,627.868,36.051,836.772c0.082,208.904,86.752,418.072,234.433,565.807
					c147.788,147.61,356.951,234.174,565.798,234.193l0,0c-208.847-0.022-418.008-86.588-565.793-234.199
					c-147.677-147.735-234.345-356.9-234.427-565.801c0.082-208.901,86.749-418.066,234.427-565.801
					C418.274,123.361,627.435,36.794,836.282,36.772L836.282,36.772z"/>
				<path fill="#5463C0" d="M836.282,36.772c-208.847,0.015-418.013,86.576-565.804,234.186
					C122.794,418.694,36.121,627.865,36.039,836.772c0.082,208.908,86.755,418.078,234.439,565.814
					c147.791,147.61,356.957,234.171,565.804,234.186l0,0c-208.847-0.018-418.01-86.582-565.798-234.193
					C122.803,1254.844,36.133,1045.677,36.051,836.772c0.082-208.904,86.752-418.072,234.433-565.807
					C418.271,123.354,627.435,36.791,836.282,36.772L836.282,36.772z"/>
				<path fill="#515AC5" d="M836.282,36.772c-208.847,0.012-418.015,86.57-565.809,234.18
					C122.785,418.688,36.11,627.861,36.028,836.772c0.082,208.911,86.757,418.084,234.445,565.82
					c147.793,147.61,356.962,234.168,565.809,234.18l0,0c-208.847-0.015-418.013-86.576-565.804-234.186
					C122.794,1254.851,36.121,1045.68,36.039,836.772c0.082-208.908,86.755-418.078,234.439-565.814
					C418.269,123.348,627.435,36.787,836.282,36.772L836.282,36.772z"/>
				<path fill="#4E52CA" d="M836.282,36.772c-208.847,0.008-418.018,86.564-565.814,234.173
					C122.777,418.682,36.099,627.858,36.017,836.772c0.082,208.914,86.76,418.091,234.451,565.827
					c147.796,147.61,356.967,234.165,565.814,234.173l0,0c-208.847-0.012-418.015-86.57-565.809-234.18
					C122.785,1254.857,36.11,1045.683,36.028,836.772c0.082-208.911,86.757-418.084,234.445-565.82
					C418.266,123.342,627.435,36.784,836.282,36.772L836.282,36.772z"/>
				<path fill="#4B4AD0" d="M836.282,36.772c-208.847,0.005-418.02,86.557-565.819,234.167
					C122.768,418.676,36.087,627.855,36.005,836.772c0.082,208.918,86.763,418.097,234.457,565.833
					c147.799,147.609,356.973,234.162,565.819,234.167l0,0c-208.847-0.008-418.018-86.564-565.814-234.173
					C122.777,1254.863,36.099,1045.687,36.017,836.772c0.082-208.914,86.76-418.091,234.451-565.827
					C418.264,123.336,627.435,36.781,836.282,36.772L836.282,36.772z"/>
				<path fill="#4842D5" d="M836.282,36.772c-208.847,0.002-418.023,86.551-565.825,234.16
					C122.76,418.669,36.076,627.852,35.994,836.772c0.082,208.921,86.765,418.103,234.463,565.84
					c147.802,147.609,356.978,234.159,565.825,234.16l0,0c-208.847-0.005-418.02-86.557-565.819-234.167
					C122.768,1254.869,36.087,1045.69,36.005,836.772c0.082-208.918,86.763-418.097,234.457-565.833
					C418.261,123.33,627.435,36.777,836.282,36.772L836.282,36.772z"/>
				<path fill="#463ADA" d="M836.282,36.772c-208.847-0.002-418.025,86.545-565.83,234.154
					C122.751,418.663,36.065,627.848,35.983,836.772c0.082,208.924,86.768,418.109,234.469,565.846
					c147.804,147.609,356.983,234.156,565.83,234.154l0,0c-208.847-0.002-418.023-86.551-565.825-234.16
					C122.76,1254.875,36.076,1045.693,35.994,836.772c0.082-208.921,86.765-418.103,234.463-565.84
					C418.259,123.324,627.435,36.774,836.282,36.772L836.282,36.772z"/>
				<path fill="#4331DF" d="M836.282,36.772c-208.847-0.005-418.028,86.539-565.835,234.148
					C122.743,418.657,36.054,627.845,35.972,836.772c0.082,208.927,86.771,418.115,234.474,565.852
					c147.807,147.609,356.988,234.153,565.835,234.148l0,0c-208.847,0.002-418.025-86.545-565.83-234.154
					c-147.7-147.737-234.386-356.922-234.469-565.846c0.082-208.924,86.768-418.109,234.469-565.846
					C418.256,123.318,627.435,36.771,836.282,36.772L836.282,36.772z"/>
				<path fill="#4029E5" d="M836.282,36.772c-208.847-0.009-418.03,86.533-565.84,234.141
					C122.735,418.651,36.043,627.842,35.961,836.772c0.082,208.931,86.773,418.122,234.48,565.859
					c147.81,147.608,356.993,234.15,565.84,234.141l0,0c-208.847,0.005-418.028-86.539-565.835-234.148
					C122.743,1254.888,36.054,1045.7,35.972,836.772c0.082-208.928,86.771-418.115,234.474-565.853
					C418.254,123.311,627.435,36.767,836.282,36.772L836.282,36.772z"/>
				<path fill="#3D21EA" d="M836.282,36.772c-208.847-0.012-418.032,86.527-565.845,234.135
					C122.726,418.645,36.033,627.838,35.95,836.772c0.082,208.934,86.776,418.128,234.486,565.865
					c147.813,147.608,356.998,234.146,565.845,234.135l0,0c-208.847,0.009-418.03-86.533-565.84-234.141
					c-147.707-147.737-234.398-356.928-234.48-565.859c0.082-208.931,86.773-418.122,234.48-565.859
					C418.251,123.305,627.435,36.764,836.282,36.772L836.282,36.772z"/>
				<path fill="#3A19EF" d="M836.282,36.772c-208.847-0.015-418.035,86.521-565.85,234.128
					C122.718,418.638,36.022,627.835,35.94,836.772c0.082,208.937,86.779,418.134,234.492,565.872
					c147.815,147.608,357.003,234.144,565.85,234.128l0,0c-208.847,0.012-418.032-86.527-565.845-234.135
					C122.726,1254.9,36.033,1045.707,35.95,836.772c0.082-208.934,86.776-418.128,234.486-565.865
					C418.249,123.299,627.435,36.761,836.282,36.772L836.282,36.772z"/>
				<path fill="#3710F4" d="M836.282,36.772c-208.846-0.019-418.037,86.515-565.855,234.122
					C122.71,418.632,36.011,627.832,35.929,836.772c0.082,208.941,86.781,418.14,234.498,565.878
					c147.818,147.607,357.008,234.14,565.855,234.122l0,0c-208.847,0.015-418.035-86.521-565.85-234.128
					C122.718,1254.906,36.022,1045.71,35.94,836.772c0.082-208.937,86.779-418.134,234.492-565.872
					C418.247,123.293,627.435,36.757,836.282,36.772L836.282,36.772z"/>
				<path fill="#3408FA" d="M836.282,36.772c-208.846-0.022-418.039,86.508-565.86,234.115
					C122.702,418.626,36.001,627.828,35.918,836.772c0.082,208.944,86.784,418.146,234.503,565.885
					c147.821,147.607,357.013,234.137,565.86,234.115l0,0c-208.846,0.019-418.037-86.515-565.855-234.122
					C122.71,1254.913,36.011,1045.713,35.929,836.772c0.082-208.941,86.781-418.14,234.498-565.878
					C418.245,123.287,627.435,36.754,836.282,36.772L836.282,36.772z"/>
				<path fill="#3100FF" d="M836.282,36.772c-208.846-0.025-418.041,86.502-565.864,234.109
					C122.694,418.62,35.99,627.825,35.908,836.772c0.082,208.947,86.786,418.153,234.509,565.891
					c147.823,147.607,357.018,234.134,565.864,234.109l0,0c-208.846,0.022-418.039-86.508-565.86-234.115
					c-147.72-147.738-234.421-356.941-234.503-565.885c0.082-208.944,86.784-418.146,234.503-565.885
					C418.242,123.281,627.435,36.75,836.282,36.772L836.282,36.772z"/>
				<path fill="#3100FF" d="M836.282,36.772c-207.739-1.143-416.713,84.555-564.555,231.96
					C123.605,416.649,36.583,626.742,36.501,836.772c0.082,210.03,87.104,420.123,235.225,568.04
					c147.842,147.405,356.816,233.103,564.555,231.96l0,0c-208.846,0.025-418.041-86.502-565.864-234.109
					C122.694,1254.925,35.99,1045.72,35.908,836.772c0.082-208.947,86.786-418.153,234.509-565.891
					C418.24,123.275,627.435,36.747,836.282,36.772L836.282,36.772z"/>
				<path fill="#3608FF" d="M836.282,36.772c-204.532-2.25-411.293,82.818-557.423,229.82
					C131.68,414.882,45.445,625.698,45.363,836.772c0.082,211.075,86.317,421.89,233.495,570.18
					c146.13,147.001,352.891,232.07,557.423,229.82l0,0c-207.739,1.143-416.713-84.555-564.555-231.96
					c-148.121-147.917-235.143-358.01-235.225-568.04c0.082-210.03,87.104-420.123,235.225-568.04
					C419.568,121.328,628.543,35.629,836.282,36.772L836.282,36.772z"/>
				<path fill="#3C10FF" d="M836.282,36.772c-199.248-3.336-401.799,81.322-544.476,227.71
					C146.942,413.35,62.614,624.702,62.534,836.772c0.081,212.07,84.408,423.423,229.272,572.29
					c142.677,146.388,345.228,231.046,544.476,227.71l0,0c-204.532,2.25-411.293-82.818-557.423-229.82
					c-147.178-148.29-233.413-359.106-233.495-570.18c0.082-211.075,86.317-421.89,233.495-570.18
					C424.989,119.591,631.749,34.522,836.282,36.772L836.282,36.772z"/>
				<path fill="#4219FF" d="M836.282,36.772c-191.93-4.389-388.288,80.101-525.787,225.652
					C169.339,412.085,88.038,623.765,87.96,836.772c0.078,213.008,81.379,424.687,222.534,574.348
					c137.499,145.551,333.857,230.042,525.787,225.652l0,0c-199.248,3.336-401.799-81.322-544.476-227.71
					c-144.864-148.868-229.191-360.22-229.272-572.29c0.081-212.07,84.408-423.423,229.272-572.29
					C434.483,118.094,637.034,33.436,836.282,36.772L836.282,36.772z"/>
				<path fill="#4822FF" d="M836.282,36.772c-182.645-5.4-370.853,79.197-501.493,223.671
					C198.752,411.126,121.567,622.894,121.492,836.772c0.075,213.878,77.26,425.647,213.296,576.329
					c130.64,144.474,318.848,229.071,501.493,223.671l0,0c-191.93,4.389-388.288-80.101-525.787-225.652
					C169.339,1261.459,88.038,1049.78,87.96,836.772c0.078-213.008,81.379-424.687,222.534-574.348
					C447.993,116.874,644.352,32.383,836.282,36.772L836.282,36.772z"/>
				<path fill="#4E2AFF" d="M836.282,36.772C664.8,30.416,486.664,115.424,364.482,258.56
					C234.987,410.507,162.951,622.096,162.88,836.772c0.071,214.676,72.108,426.265,201.603,578.213
					c122.181,143.136,300.317,228.144,471.799,221.787l0,0c-182.645,5.4-370.853-79.197-501.493-223.671
					c-136.036-150.682-213.221-362.451-213.296-576.329c0.075-213.878,77.26-425.647,213.296-576.329
					C465.429,115.969,653.637,31.373,836.282,36.772L836.282,36.772z"/>
				<path fill="#5533FF" d="M836.282,36.772c-158.551-7.251-324.736,78.508-436.975,220.023
					C277.782,410.263,211.836,621.376,211.77,836.772c0.066,215.396,66.012,426.509,187.536,579.977
					c112.24,141.515,278.424,227.274,436.975,220.023l0,0c-171.482,6.357-349.618-78.651-471.799-221.787
					c-129.495-151.948-201.532-363.536-201.603-578.213c0.071-214.676,72.108-426.265,201.603-578.213
					C486.664,115.424,664.8,30.416,836.282,36.772L836.282,36.772z"/>
				<path fill="#5B3CFF" d="M836.282,36.772C692.297,28.699,539.9,115.577,438.924,255.171
					C326.807,410.417,267.767,620.737,267.707,836.772c0.06,216.036,59.101,426.356,171.217,581.602
					c100.976,139.593,253.373,226.472,397.358,218.398l0,0c-158.551,7.251-324.736-78.508-436.975-220.023
					c-121.524-153.468-187.47-364.581-187.536-579.977c0.066-215.396,66.012-426.509,187.536-579.977
					C511.546,115.281,677.731,29.522,836.282,36.772L836.282,36.772z"/>
				<path fill="#6145FF" d="M836.282,36.772C772.756,32.374,706.36,49.9,647.711,85.549
					c-62.647,38.126-118.754,96.773-164.774,168.156c-49.223,76.412-86.947,166.605-112.712,264.513
					c-26.711,101.61-40.076,209.485-40.09,318.554c0.014,109.07,13.379,216.944,40.09,318.554
					c25.766,97.907,63.49,188.101,112.712,264.513c46.02,71.383,102.127,130.031,164.774,168.156
					c58.648,35.649,125.045,53.175,188.57,48.776l0,0c-143.984,8.073-296.382-78.805-397.358-218.398
					c-112.117-155.246-171.157-365.566-171.217-581.602c0.06-216.036,59.101-426.356,171.217-581.602
					C539.9,115.577,692.297,28.699,836.282,36.772L836.282,36.772z"/>
				<path fill="#674EFF" d="M836.282,36.772c-54.735-4.712-112.747,12.917-162.813,47.891
					c-54.851,38.364-103.059,96.989-142.581,167.753c-42.96,76.98-75.428,167.069-97.701,264.872
					c-23.235,102.141-34.772,210.095-34.784,319.484c0.012,109.389,11.549,217.343,34.784,319.484
					c22.273,97.803,54.741,187.892,97.701,264.872c39.523,70.764,87.731,129.389,142.581,167.753
					c50.066,34.974,108.078,52.603,162.813,47.891l0,0c-63.526,4.399-129.922-13.128-188.57-48.776
					c-62.647-38.126-118.754-96.773-164.774-168.156c-49.223-76.412-86.947-166.605-112.712-264.513
					c-26.711-101.61-40.076-209.485-40.09-318.554c0.014-109.07,13.379-216.944,40.09-318.554
					c25.766-97.907,63.49-188.101,112.712-264.513c46.02-71.383,102.127-130.031,164.774-168.156
					C706.36,49.9,772.756,32.374,836.282,36.772L836.282,36.772z"/>
				<path fill="#6E57FF" d="M836.282,36.772c-45.357-4.971-94.403,12.985-135.304,47.139
					c-46.432,38.82-86.081,97.304-118.714,167.408c-36.083,77.579-62.944,167.494-81.467,265.177
					c-19.437,102.618-29.018,210.617-29.027,320.276c0.01,109.659,9.591,217.658,29.027,320.276
					c18.523,97.683,45.383,187.599,81.467,265.177c32.633,70.104,72.282,128.588,118.714,167.408
					c40.902,34.154,89.947,52.11,135.304,47.139l0,0c-54.735,4.712-112.747-12.917-162.813-47.891
					c-54.851-38.364-103.059-96.989-142.581-167.753c-42.96-76.98-75.428-167.069-97.701-264.872
					c-23.235-102.141-34.772-210.095-34.784-319.484c0.012-109.389,11.549-217.343,34.784-319.484
					c22.273-97.803,54.741-187.892,97.701-264.872c39.523-70.764,87.731-129.389,142.581-167.753
					C723.535,49.689,781.547,32.061,836.282,36.772L836.282,36.772z"/>
				<path fill="#7461FF" d="M836.282,36.772c-35.475-5.168-75.004,13.417-106.337,46.529
					c-37.385,39.556-67.975,97.68-93.441,167.126c-28.641,78.169-49.638,167.861-64.2,265.424
					c-15.36,103.024-22.883,211.043-22.89,320.921c0.008,109.878,7.53,217.896,22.89,320.921
					c14.562,97.563,35.559,187.255,64.2,265.424c25.466,69.446,56.056,127.57,93.441,167.126
					c31.333,33.111,70.863,51.696,106.337,46.529l0,0c-45.357,4.971-94.403-12.985-135.304-47.139
					c-46.432-38.82-86.081-97.303-118.714-167.408c-36.083-77.579-62.944-167.494-81.467-265.177
					c-19.437-102.618-29.018-210.617-29.027-320.276c0.01-109.659,9.591-217.658,29.027-320.276
					c18.523-97.683,45.383-187.598,81.467-265.177c32.633-70.104,72.282-128.588,118.714-167.408
					C741.879,49.758,790.924,31.801,836.282,36.772L836.282,36.772z"/>
				<path fill="#7B6AFF" d="M836.282,36.772c-25.154-5.277-54.57,14.278-76.221,46.067c-27.613,40.593-48.924,98.061-67.054,166.913
					c-20.704,78.696-35.673,168.154-46.112,265.611c-11.057,103.344-16.444,211.365-16.449,321.409
					c0.006,110.043,5.392,218.065,16.449,321.409c10.439,97.457,25.408,186.915,46.112,265.611
					c18.129,68.852,39.441,126.32,67.054,166.913c21.651,31.789,51.067,51.344,76.221,46.068l0,0
					c-35.475,5.168-75.004-13.417-106.337-46.529c-37.385-39.556-67.975-97.68-93.441-167.126
					c-28.641-78.169-49.638-167.861-64.2-265.424c-15.36-103.024-22.883-211.043-22.89-320.921
					c0.008-109.878,7.53-217.896,22.89-320.921c14.562-97.563,35.559-187.255,64.2-265.424
					c25.466-69.446,56.056-127.571,93.441-167.126C761.277,50.19,800.807,31.605,836.282,36.772L836.282,36.772z"/>
				<path fill="#8173FF" d="M836.282,36.772c-14.394-5.189-32.984,15.456-45.279,45.76c-16.929,41.778-29.152,98.372-39.864,166.77
					c-12.376,79.094-21.229,168.357-27.43,265.735c-6.588,103.563-9.785,211.581-9.788,321.734
					c0.003,110.153,3.201,218.172,9.788,321.734c6.201,97.378,15.054,186.641,27.43,265.735
					c10.711,68.398,22.935,124.992,39.864,166.77c12.295,30.304,30.885,50.949,45.279,45.76l0,0
					c-25.154,5.277-54.57-14.278-76.221-46.068c-27.613-40.593-48.924-98.061-67.054-166.913
					c-20.704-78.696-35.673-168.154-46.112-265.611c-11.057-103.344-16.444-211.365-16.449-321.409
					c0.006-110.043,5.392-218.065,16.449-321.409c10.439-97.457,25.408-186.915,46.112-265.611
					c18.129-68.852,39.441-126.32,67.054-166.913C781.712,51.051,811.128,31.496,836.282,36.772L836.282,36.772z"/>
				<path fill="#8173FF" d="M836.282,36.772c-0.348-1.704-2.487,16.505-3.366,45.596c-1.289,42.719-2.171,98.561-2.965,166.694
					c-0.923,79.324-1.58,168.467-2.041,265.801c-0.491,103.681-0.728,211.696-0.728,321.908c0,110.212,0.238,218.227,0.728,321.908
					c0.461,97.334,1.117,186.477,2.041,265.801c0.794,68.134,1.676,123.975,2.965,166.694c0.879,29.091,3.019,47.3,3.366,45.596l0,0
					c-14.394,5.189-32.984-15.456-45.279-45.76c-16.929-41.778-29.152-98.372-39.864-166.77
					c-12.376-79.094-21.229-168.357-27.43-265.735c-6.588-103.563-9.785-211.581-9.788-321.734
					c0.003-110.153,3.201-218.172,9.788-321.734c6.201-97.378,15.054-186.642,27.43-265.735
					c10.711-68.398,22.935-124.992,39.864-166.77C803.297,52.229,821.888,31.584,836.282,36.772L836.282,36.772z"/>
				<path fill="#8A7CFF" d="M836.282,36.772c12.028-5.1,28.224,15.705,38.611,45.715c14.521,42.009,24.871,98.422,33.997,166.749
					c10.564,79.156,18.108,168.387,23.396,265.753c5.62,103.595,8.346,211.613,8.349,321.782
					c-0.003,110.169-2.729,218.187-8.349,321.782c-5.288,97.366-12.832,186.598-23.396,265.753
					c-9.126,68.327-19.476,124.74-33.997,166.75c-10.387,30.01-26.583,50.815-38.611,45.715l0,0
					c-0.348,1.704-2.487-16.505-3.366-45.596c-1.289-42.719-2.171-98.561-2.965-166.694c-0.923-79.324-1.58-168.467-2.041-265.801
					c-0.491-103.681-0.728-211.696-0.728-321.908c0-110.212,0.238-218.227,0.728-321.908c0.461-97.334,1.117-186.477,2.041-265.801
					c0.794-68.134,1.676-123.975,2.965-166.694C833.794,53.277,835.934,35.069,836.282,36.772L836.282,36.772z"/>
				<path fill="#9385FF" d="M836.282,36.772c26.401-5.27,57.053,14.154,79.846,46.114c28.817,40.457,51.229,98.018,70.235,166.935
					c21.67,78.638,37.36,168.124,48.295,265.592c11.578,103.311,17.222,211.333,17.227,321.359
					c-0.006,110.027-5.649,218.048-17.227,321.359c-10.935,97.468-26.626,186.953-48.295,265.592
					c-19.006,68.917-41.418,126.478-70.235,166.935c-22.793,31.96-53.445,51.384-79.846,46.114l0,0
					c12.028,5.1,28.224-15.705,38.611-45.715c14.521-42.009,24.871-98.422,33.997-166.75
					c10.564-79.156,18.108-168.387,23.396-265.753c5.62-103.595,8.346-211.613,8.349-321.782
					c-0.003-110.169-2.729-218.187-8.349-321.782c-5.288-97.366-12.832-186.598-23.396-265.753
					c-9.126-68.327-19.476-124.74-33.997-166.749C864.506,52.478,848.31,31.673,836.282,36.772L836.282,36.772z"/>
				<path fill="#9C8DFF" d="M836.282,36.772c39.985-5.088,83.87,13.172,119.549,46.786c41.542,39.186,76.261,97.506,104.983,167.245
					c32.06,77.907,55.724,167.704,72.094,265.32c17.228,102.851,25.689,210.863,25.698,320.649
					c-0.009,109.786-8.469,217.798-25.698,320.649c-16.37,97.616-40.034,187.413-72.094,265.32
					c-28.722,69.739-63.441,128.059-104.983,167.245c-35.679,33.614-79.565,51.874-119.549,46.786l0,0
					c26.401,5.27,57.053-14.154,79.846-46.114c28.817-40.457,51.229-98.018,70.235-166.935
					c21.67-78.638,37.36-168.124,48.295-265.592c11.578-103.311,17.222-211.333,17.227-321.359
					c-0.006-110.027-5.649-218.048-17.227-321.359c-10.935-97.468-26.626-186.953-48.295-265.592
					c-19.006-68.917-41.418-126.478-70.235-166.935C893.334,50.927,862.683,31.502,836.282,36.772L836.282,36.772z"/>
				<path fill="#A696FF" d="M836.282,36.772c52.741-4.773,108.849,12.905,156.965,47.716c53.07,38.442,99.468,97.05,137.52,167.672
					c41.514,77.109,72.788,167.165,94.266,264.943c22.434,102.25,33.556,210.217,33.567,319.669
					c-0.011,109.452-11.132,217.418-33.567,319.669c-21.477,97.778-52.751,187.834-94.266,264.943
					c-38.053,70.622-84.45,129.23-137.52,167.672c-48.116,34.81-104.224,52.489-156.965,47.716l0,0
					c39.985,5.088,83.87-13.172,119.549-46.786c41.542-39.186,76.261-97.506,104.983-167.245
					c32.06-77.907,55.724-167.704,72.094-265.32c17.228-102.851,25.689-210.863,25.698-320.649
					c-0.009-109.786-8.469-217.798-25.698-320.649c-16.37-97.616-40.034-187.413-72.094-265.32
					c-28.722-69.739-63.441-128.059-104.983-167.245C920.152,49.944,876.266,31.685,836.282,36.772L836.282,36.772z"/>
				<path fill="#AF9FFF" d="M836.282,36.772c64.488-4.36,131.802,13.166,191.387,48.886c63.496,38.11,120.458,96.755,167.19,168.206
					c102.577,157.024,154.95,366.375,155.005,582.909c-0.055,216.533-52.428,425.885-155.005,582.909
					c-46.732,71.45-103.694,130.096-167.19,168.206c-59.585,35.719-126.899,53.245-191.387,48.886l0,0
					c52.741,4.773,108.849-12.905,156.965-47.716c53.07-38.442,99.468-97.05,137.52-167.672
					c41.514-77.109,72.788-167.165,94.266-264.943c22.434-102.25,33.556-210.217,33.567-319.669
					c-0.011-109.452-11.132-217.418-33.567-319.669c-21.477-97.778-52.751-187.835-94.266-264.943
					c-38.053-70.622-84.45-129.23-137.52-167.672C945.13,49.678,889.023,31.999,836.282,36.772L836.282,36.772z"/>
				<path fill="#B8A8FF" d="M836.282,36.772c150.673-7.716,309.444,78.616,415.594,219.104
					c116.49,154.421,178.701,365.135,178.764,580.896c-0.063,215.761-62.274,426.474-178.764,580.896
					c-106.15,140.488-264.921,226.82-415.594,219.104l0,0c64.488,4.36,131.802-13.167,191.387-48.886
					c63.496-38.11,120.458-96.755,167.19-168.206c102.577-157.024,154.95-366.375,155.005-582.909
					c-0.055-216.533-52.428-425.885-155.005-582.909c-46.732-71.45-103.694-130.096-167.19-168.206
					C968.083,49.939,900.77,32.413,836.282,36.772L836.282,36.772z"/>
				<path fill="#C1B0FF" d="M836.282,36.772c168.757-6.561,344.398,78.583,464.493,221.384
					c127.848,152.263,198.608,363.773,198.678,578.616c-0.07,214.843-70.831,426.353-198.678,578.616
					c-120.095,142.801-295.736,227.945-464.493,221.384l0,0c150.673,7.716,309.444-78.616,415.594-219.104
					c116.49-154.422,178.701-365.135,178.764-580.896c-0.063-215.761-62.274-426.474-178.764-580.896
					C1145.725,115.389,986.955,29.057,836.282,36.772L836.282,36.772z"/>
				<path fill="#CAB9FF" d="M836.282,36.772c183.756-5.291,372.951,79.279,504.423,223.884
					c136.666,150.559,214.354,362.33,214.429,576.116c-0.075,213.786-77.763,425.557-214.429,576.116
					c-131.472,144.604-320.667,229.175-504.423,223.884l0,0c168.757,6.561,344.398-78.583,464.493-221.384
					c127.848-152.263,198.608-363.773,198.678-578.616c-0.07-214.843-70.831-426.353-198.678-578.616
					C1180.679,115.356,1005.038,30.211,836.282,36.772L836.282,36.772z"/>
				<path fill="#CAB9FF" d="M836.282,36.772c185.887-5.075,376.968,79.455,510.027,224.308
					c137.863,150.323,216.508,362.09,216.584,575.692c-0.076,213.602-78.721,425.369-216.584,575.692
					c-133.059,144.853-324.141,229.383-510.027,224.308l0,0c183.756,5.291,372.951-79.279,504.423-223.884
					c136.666-150.559,214.354-362.33,214.429-576.116c-0.075-213.786-77.763-425.558-214.429-576.116
					C1209.233,116.052,1020.037,31.481,836.282,36.772L836.282,36.772z"/>
				<path fill="#C6B4FF" d="M836.282,36.772c187.928-4.857,380.804,79.646,515.374,224.737
					c138.993,150.098,218.546,361.849,218.623,575.263c-0.077,213.414-79.63,425.165-218.623,575.263
					c-134.57,145.09-327.446,229.593-515.374,224.737l0,0c185.887,5.075,376.968-79.455,510.027-224.308
					c137.863-150.323,216.508-362.09,216.584-575.692c-0.076-213.602-78.721-425.369-216.584-575.692
					C1213.25,116.227,1022.168,31.697,836.282,36.772L836.282,36.772z"/>
				<path fill="#C1AEFF" d="M836.282,36.772c189.878-4.636,384.457,79.854,520.46,225.169
					c140.056,149.884,220.466,361.608,220.544,574.831c-0.078,213.223-80.488,424.947-220.544,574.831
					c-136.003,145.315-330.583,229.805-520.46,225.169l0,0c187.928,4.857,380.804-79.646,515.374-224.737
					c138.993-150.098,218.546-361.849,218.623-575.263c-0.077-213.414-79.63-425.165-218.623-575.263
					C1217.085,116.419,1024.209,31.916,836.282,36.772L836.282,36.772z"/>
				<path fill="#BBA7FF" d="M836.282,36.772c191.736-4.413,387.927,80.077,525.286,225.605
					c141.052,149.682,222.27,361.366,222.348,574.395c-0.078,213.029-81.296,424.713-222.348,574.395
					c-137.358,145.529-333.549,230.019-525.286,225.605l0,0c189.878,4.636,384.457-79.854,520.46-225.169
					c140.056-149.884,220.466-361.608,220.544-574.831c-0.078-213.223-80.488-424.947-220.544-574.831
					C1220.739,116.626,1026.159,32.136,836.282,36.772L836.282,36.772z"/>
				<path fill="#B5A0FF" d="M836.282,36.772c193.502-4.189,391.213,80.314,529.847,226.045
					c141.983,149.49,223.956,361.123,224.035,573.955c-0.079,212.831-82.052,424.465-224.035,573.955
					c-138.634,145.731-336.345,230.234-529.847,226.045l0,0c191.736,4.413,387.927-80.077,525.286-225.605
					c141.052-149.682,222.27-361.366,222.348-574.395c-0.078-213.029-81.296-424.713-222.348-574.395
					C1224.209,116.849,1028.018,32.359,836.282,36.772L836.282,36.772z"/>
				<path fill="#AF98FF" d="M836.282,36.772c195.175-3.962,394.314,80.566,534.144,226.489
					c142.847,149.308,225.524,360.88,225.603,573.511c-0.079,212.631-82.756,424.203-225.603,573.511
					c-139.83,145.922-338.968,230.45-534.144,226.489l0,0c193.502,4.188,391.213-80.314,529.847-226.045
					c141.983-149.49,223.956-361.123,224.035-573.955c-0.079-212.831-82.052-424.465-224.035-573.955
					C1227.495,117.087,1029.784,32.584,836.282,36.772L836.282,36.772z"/>
				<path fill="#A991FF" d="M836.282,36.772c196.754-3.733,397.227,80.832,538.174,226.935
					c143.645,149.137,226.974,360.638,227.054,573.065c-0.08,212.427-83.408,423.927-227.054,573.065
					c-140.946,146.103-341.419,230.668-538.174,226.935l0,0c195.175,3.962,394.314-80.566,534.144-226.489
					c142.847-149.308,225.524-360.88,225.603-573.511c-0.079-212.631-82.756-424.203-225.603-573.511
					C1230.595,117.339,1031.457,32.811,836.282,36.772L836.282,36.772z"/>
				<path fill="#A289FF" d="M836.282,36.772c198.239-3.503,399.953,81.112,541.935,227.384
					c144.377,148.977,228.306,360.395,228.386,572.616c-0.08,212.221-84.009,423.639-228.386,572.615
					c-141.982,146.272-343.697,230.887-541.935,227.385l0,0c196.754,3.733,397.227-80.833,538.174-226.935
					C1518.1,1260.7,1601.429,1049.2,1601.509,836.772c-0.08-212.427-83.408-423.927-227.054-573.065
					C1233.509,117.605,1033.036,33.039,836.282,36.772L836.282,36.772z"/>
				<path fill="#9B80FF" d="M836.282,36.772c199.628-3.271,402.491,81.405,545.428,227.836
					c145.044,148.827,229.519,360.152,229.6,572.164c-0.081,212.012-84.556,423.337-229.6,572.164
					c-142.936,146.431-345.8,231.107-545.428,227.836l0,0c198.239,3.503,399.953-81.112,541.935-227.385
					c144.377-148.977,228.306-360.395,228.386-572.615c-0.08-212.221-84.009-423.639-228.386-572.616
					C1236.235,117.885,1034.52,33.27,836.282,36.772L836.282,36.772z"/>
				<path fill="#9478FF" d="M836.282,36.772c200.921-3.037,404.84,81.711,548.65,228.291
					c145.645,148.686,230.615,359.91,230.696,571.709c-0.081,211.8-85.051,423.023-230.696,571.709
					c-143.81,146.58-347.729,231.328-548.65,228.291l0,0c199.628,3.271,402.491-81.405,545.428-227.836
					c145.044-148.827,229.519-360.152,229.6-572.164c-0.081-212.012-84.556-423.337-229.6-572.164
					C1238.773,118.178,1035.909,33.502,836.282,36.772L836.282,36.772z"/>
				<path fill="#8D6FFF" d="M836.282,36.772c202.118-2.803,406.999,82.029,551.6,228.747
					c146.181,148.556,231.592,359.668,231.673,571.253c-0.081,211.585-85.492,422.696-231.673,571.253
					c-144.602,146.718-349.482,231.55-551.6,228.747l0,0c200.921,3.037,404.84-81.711,548.65-228.291
					c145.645-148.686,230.615-359.91,230.696-571.709c-0.081-211.8-85.051-423.023-230.696-571.709
					C1241.121,118.484,1037.202,33.735,836.282,36.772L836.282,36.772z"/>
				<path fill="#8667FF" d="M836.282,36.772c203.218-2.567,408.967,82.36,554.279,229.206
					c146.651,148.436,232.451,359.426,232.533,570.794c-0.082,211.368-85.881,422.358-232.533,570.794
					c-145.312,146.846-351.061,231.773-554.279,229.206l0,0c202.118,2.803,406.999-82.029,551.6-228.747
					c146.181-148.556,231.592-359.668,231.673-571.253c-0.081-211.585-85.492-422.697-231.673-571.253
					C1243.28,118.802,1038.399,33.97,836.282,36.772L836.282,36.772z"/>
				<path fill="#7F5EFF" d="M836.282,36.772c204.221-2.329,410.744,82.702,556.684,229.666
					c147.057,148.325,233.193,359.185,233.275,570.334c-0.082,211.148-86.217,422.009-233.275,570.334
					c-145.94,146.964-352.463,231.996-556.684,229.666l0,0c203.218,2.567,408.967-82.36,554.279-229.206
					c146.651-148.436,232.451-359.426,232.533-570.794c-0.082-211.368-85.881-422.358-232.533-570.794
					C1245.249,119.132,1039.499,34.206,836.282,36.772L836.282,36.772z"/>
				<path fill="#7755FF" d="M836.282,36.772c205.126-2.091,412.33,83.055,558.816,230.128
					c147.399,148.224,233.817,358.945,233.899,569.872c-0.082,210.926-86.5,421.648-233.899,569.872
					c-146.486,147.073-353.69,232.219-558.816,230.128l0,0c204.221,2.329,410.744-82.702,556.684-229.666
					c147.057-148.325,233.193-359.185,233.275-570.334c-0.082-211.148-86.217-422.009-233.275-570.334
					C1247.026,119.474,1040.502,34.443,836.282,36.772L836.282,36.772z"/>
				<path fill="#704CFF" d="M836.282,36.772c205.933-1.852,413.724,83.42,560.674,230.591
					c147.676,148.132,234.324,358.707,234.407,569.409c-0.082,210.702-86.731,421.277-234.407,569.409
					c-146.95,147.171-354.741,232.443-560.674,230.591l0,0c205.126,2.091,412.33-83.055,558.816-230.128
					c147.399-148.224,233.817-358.946,233.899-569.872c-0.082-210.926-86.5-421.648-233.899-569.872
					C1248.612,119.828,1041.407,34.681,836.282,36.772L836.282,36.772z"/>
				<path fill="#6843FF" d="M836.282,36.772c206.642-1.612,414.926,83.795,562.259,231.055
					c147.889,148.05,234.715,358.469,234.797,568.945c-0.082,210.476-86.909,420.895-234.797,568.945
					c-147.333,147.26-355.617,232.667-562.259,231.055l0,0c205.933,1.852,413.724-83.42,560.674-230.591
					c147.676-148.132,234.324-358.707,234.407-569.409c-0.082-210.702-86.731-421.277-234.407-569.409
					C1250.006,120.193,1042.215,34.921,836.282,36.772L836.282,36.772z"/>
				<path fill="#613AFF" d="M836.282,36.772c207.253-1.371,415.936,84.181,563.569,231.52
					c148.038,147.977,234.99,358.232,235.072,568.48c-0.082,210.247-87.034,420.503-235.072,568.48
					c-147.633,147.339-356.317,232.891-563.569,231.52l0,0c206.642,1.612,414.926-83.795,562.259-231.055
					c147.889-148.05,234.715-358.469,234.797-568.945c-0.082-210.476-86.909-420.895-234.797-568.945
					C1251.208,120.568,1042.924,35.161,836.282,36.772L836.282,36.772z"/>
				<path fill="#5930FF" d="M836.282,36.772c207.765-1.13,416.753,84.577,564.605,231.986
					c148.124,147.913,235.149,357.997,235.231,568.014c-0.082,210.017-87.107,420.101-235.231,568.014
					c-147.852,147.409-356.841,233.116-564.605,231.986l0,0c207.253,1.371,415.936-84.181,563.569-231.52
					c148.038-147.977,234.99-358.232,235.072-568.48c-0.082-210.247-87.034-420.503-235.072-568.48
					C1252.218,120.954,1043.534,35.401,836.282,36.772L836.282,36.772z"/>
				<path fill="#5127FF" d="M836.282,36.772c208.178-0.888,417.378,84.983,565.368,232.452
					c148.147,147.859,235.192,357.763,235.275,567.548c-0.083,209.785-87.128,419.689-235.275,567.548
					c-147.99,147.469-357.19,233.34-565.368,232.452l0,0c207.765,1.13,416.753-84.577,564.605-231.986
					c148.124-147.913,235.149-357.997,235.231-568.014c-0.082-210.017-87.107-420.101-235.231-568.014
					C1253.035,121.35,1044.046,35.643,836.282,36.772L836.282,36.772z"/>
				<path fill="#491DFF" d="M836.282,36.772c208.492-0.646,417.81,85.398,565.856,232.918
					c148.107,147.813,235.122,357.53,235.205,567.082c-0.082,209.552-87.097,419.269-235.205,567.082
					c-148.046,147.52-357.364,233.564-565.856,232.918l0,0c208.178,0.888,417.378-84.983,565.368-232.452
					c148.147-147.859,235.192-357.763,235.275-567.548c-0.083-209.785-87.128-419.689-235.275-567.548
					C1253.66,121.755,1044.459,35.885,836.282,36.772L836.282,36.772z"/>
				<path fill="#4114FF" d="M836.282,36.772c208.707-0.403,418.05,85.823,566.072,233.384
					c148.005,147.777,234.938,357.3,235.021,566.616c-0.082,209.316-87.015,418.839-235.021,566.616
					c-148.021,147.561-357.364,233.787-566.072,233.384l0,0c208.492,0.646,417.81-85.398,565.856-232.918
					c148.107-147.813,235.122-357.53,235.205-567.082c-0.082-209.552-87.097-419.269-235.205-567.082
					C1254.092,122.171,1044.774,36.127,836.282,36.772L836.282,36.772z"/>
				<path fill="#390AFF" d="M836.282,36.772c208.824-0.161,418.098,86.257,566.014,233.849
					c147.841,147.75,234.641,357.071,234.724,566.151c-0.082,209.08-86.882,418.401-234.724,566.151
					c-147.917,147.593-357.19,234.01-566.014,233.849l0,0c208.707,0.403,418.05-85.823,566.072-233.384
					c148.005-147.777,234.938-357.3,235.021-566.616c-0.082-209.316-87.015-418.839-235.021-566.616
					C1254.332,122.595,1044.989,36.369,836.282,36.772L836.282,36.772z"/>
				<path fill="#3100FF" d="M836.282,36.772c208.842,0.082,417.954,86.699,565.685,234.315
					c147.615,147.732,234.233,356.844,234.315,565.685c-0.082,208.842-86.699,417.954-234.315,565.685
					c-147.732,147.615-356.844,234.233-565.685,234.315l0,0c208.824,0.161,418.098-86.257,566.014-233.849
					c147.841-147.75,234.641-357.071,234.724-566.151c-0.082-209.08-86.882-418.401-234.724-566.151
					C1254.38,123.029,1045.106,36.612,836.282,36.772L836.282,36.772z"/>
				<path fill="#3100FF" d="M836.282,1636.772c208.842-0.082,417.954-86.699,565.685-234.315
					c147.615-147.732,234.233-356.844,234.315-565.685c-0.082-208.842-86.699-417.954-234.315-565.685
					C1254.235,123.471,1045.123,36.854,836.282,36.772c208.842,0.082,417.954,86.699,565.685,234.315
					c147.615,147.732,234.233,356.844,234.315,565.685c-0.082,208.842-86.699,417.954-234.315,565.685
					C1254.235,1550.073,1045.123,1636.69,836.282,1636.772z"/>
				<path fill="none" d="M836.282,1636.772L836.282,1636.772c-208.842-0.082-417.954-86.699-565.685-234.315
					C122.981,1254.726,36.364,1045.614,36.282,836.772c0.082-208.842,86.699-417.954,234.315-565.685
					C418.328,123.471,627.44,36.854,836.282,36.772l0,0c208.842,0.082,417.954,86.699,565.685,234.315
					c147.615,147.732,234.233,356.844,234.315,565.685c-0.082,208.842-86.699,417.954-234.315,565.685
					C1254.235,1550.073,1045.123,1636.69,836.282,1636.772z"/>
			</g>
		</g>
	</g>
	<g>
		<g>
			<g>
				<path fill="#B0FF8B" d="M836.282,36.772c-208.842,0.082-417.954,86.699-565.685,234.315
					C122.981,418.819,36.364,627.931,36.282,836.772c0.082,208.842,86.699,417.954,234.315,565.685
					c147.732,147.615,356.844,234.233,565.685,234.315c-208.842-0.082-417.954-86.699-565.685-234.315
					C122.981,1254.726,36.364,1045.614,36.282,836.772c0.082-208.842,86.699-417.954,234.315-565.685
					C418.328,123.471,627.44,36.854,836.282,36.772z"/>
				<path fill="#B0FF8B" d="M836.282,36.772c-208.842,0.082-417.954,86.699-565.685,234.315
					C122.981,418.819,36.364,627.931,36.282,836.772c0.082,208.842,86.699,417.954,234.315,565.685
					c147.732,147.615,356.844,234.233,565.685,234.315c-208.842-0.082-417.954-86.699-565.685-234.315
					C122.981,1254.726,36.364,1045.614,36.282,836.772c0.082-208.842,86.699-417.954,234.315-565.685
					C418.328,123.471,627.44,36.854,836.282,36.772z"/>
				<path fill="#A9FF82" d="M836.282,36.772c-208.842,0.082-417.954,86.699-565.685,234.315
					C122.981,418.819,36.364,627.931,36.282,836.772c0.082,208.842,86.699,417.954,234.315,565.685
					c147.732,147.615,356.844,234.233,565.685,234.315c-208.842-0.082-417.954-86.699-565.685-234.315
					C122.981,1254.726,36.364,1045.614,36.282,836.772c0.082-208.842,86.699-417.954,234.315-565.685
					C418.328,123.471,627.44,36.854,836.282,36.772z"/>
				<path fill="#A2FF78" d="M836.282,36.772c-208.842,0.082-417.954,86.699-565.685,234.315
					C122.981,418.819,36.364,627.931,36.282,836.772c0.082,208.842,86.699,417.954,234.315,565.685
					c147.732,147.615,356.844,234.233,565.685,234.315c-208.842-0.082-417.954-86.699-565.685-234.315
					C122.981,1254.726,36.364,1045.614,36.282,836.772c0.082-208.842,86.699-417.954,234.315-565.685
					C418.328,123.471,627.44,36.854,836.282,36.772z"/>
				<path fill="#9AFF6F" d="M836.282,36.772c-208.842,0.082-417.954,86.699-565.685,234.315
					C122.981,418.819,36.364,627.931,36.282,836.772c0.082,208.842,86.699,417.954,234.315,565.685
					c147.732,147.615,356.844,234.233,565.685,234.315c-208.842-0.082-417.954-86.699-565.685-234.315
					C122.981,1254.726,36.364,1045.614,36.282,836.772c0.082-208.842,86.699-417.954,234.315-565.685
					C418.328,123.471,627.44,36.854,836.282,36.772z"/>
				<path fill="#93FF65" d="M836.282,36.772c-208.842,0.082-417.954,86.699-565.685,234.315
					C122.981,418.819,36.364,627.931,36.282,836.772c0.082,208.842,86.699,417.954,234.315,565.685
					c147.732,147.615,356.844,234.233,565.685,234.315c-208.842-0.082-417.954-86.699-565.685-234.315
					C122.981,1254.726,36.364,1045.614,36.282,836.772c0.082-208.842,86.699-417.954,234.315-565.685
					C418.328,123.471,627.44,36.854,836.282,36.772z"/>
				<path fill="#8CFF5C" d="M836.282,36.772c-208.842,0.082-417.954,86.699-565.685,234.315
					C122.981,418.819,36.364,627.931,36.282,836.772c0.082,208.842,86.699,417.954,234.315,565.685
					c147.732,147.615,356.844,234.233,565.685,234.315c-208.842-0.082-417.954-86.699-565.685-234.315
					C122.981,1254.726,36.364,1045.614,36.282,836.772c0.082-208.842,86.699-417.954,234.315-565.685
					C418.328,123.471,627.44,36.854,836.282,36.772z"/>
				<path fill="#8CFF5C" d="M836.282,36.772c-208.842,0.079-417.957,86.693-565.692,234.308
					C122.971,418.812,36.351,627.927,36.269,836.772c0.082,208.845,86.702,417.96,234.321,565.692
					c147.735,147.615,356.85,234.23,565.692,234.308l0,0c-208.842-0.082-417.954-86.699-565.685-234.315
					C122.981,1254.726,36.364,1045.614,36.282,836.772c0.082-208.842,86.699-417.954,234.315-565.685
					C418.328,123.471,627.44,36.854,836.282,36.772L836.282,36.772z"/>
				<path fill="#89F761" d="M836.282,36.772c-208.843,0.075-417.96,86.687-565.698,234.302
					C122.961,418.806,36.338,627.924,36.256,836.772c0.082,208.849,86.705,417.966,234.327,565.698
					c147.738,147.615,356.855,234.226,565.698,234.302l0,0c-208.842-0.079-417.957-86.693-565.692-234.308
					C122.971,1254.733,36.351,1045.618,36.269,836.772c0.082-208.845,86.702-417.96,234.321-565.692
					C418.324,123.465,627.439,36.851,836.282,36.772L836.282,36.772z"/>
				<path fill="#86EF67" d="M836.282,36.772c-208.843,0.072-417.964,86.681-565.704,234.295
					C122.951,418.8,36.325,627.921,36.243,836.772c0.082,208.852,86.708,417.973,234.334,565.705
					c147.741,147.615,356.861,234.223,565.704,234.295l0,0c-208.843-0.075-417.96-86.687-565.698-234.302
					c-147.623-147.732-234.245-356.85-234.327-565.698c0.082-208.849,86.705-417.966,234.327-565.698
					C418.321,123.459,627.439,36.848,836.282,36.772L836.282,36.772z"/>
				<path fill="#83E66C" d="M836.282,36.772c-208.843,0.069-417.967,86.674-565.711,234.289
					C122.941,418.794,36.313,627.917,36.231,836.772c0.082,208.855,86.711,417.979,234.34,565.711
					c147.744,147.615,356.867,234.22,565.711,234.289l0,0c-208.843-0.072-417.964-86.681-565.704-234.295
					C122.951,1254.745,36.325,1045.624,36.243,836.772c0.082-208.852,86.708-417.973,234.334-565.705
					C418.318,123.453,627.438,36.844,836.282,36.772L836.282,36.772z"/>
				<path fill="#80DE71" d="M836.282,36.772c-208.844,0.065-417.97,86.668-565.717,234.282
					C122.932,418.787,36.3,627.914,36.218,836.772c0.082,208.858,86.713,417.985,234.346,565.718
					c147.747,147.614,356.873,234.217,565.717,234.282l0,0c-208.843-0.069-417.967-86.674-565.711-234.289
					c-147.63-147.732-234.258-356.856-234.34-565.711c0.082-208.855,86.711-417.979,234.34-565.711
					C418.315,123.447,627.438,36.841,836.282,36.772L836.282,36.772z"/>
				<path fill="#7DD676" d="M836.282,36.772c-208.844,0.062-417.973,86.662-565.723,234.276
					C122.922,418.781,36.288,627.911,36.206,836.772c0.082,208.862,86.716,417.991,234.353,565.724
					c147.75,147.614,356.879,234.214,565.723,234.276l0,0c-208.844-0.065-417.97-86.668-565.717-234.282
					C122.932,1254.758,36.3,1045.631,36.218,836.772c0.082-208.858,86.713-417.985,234.346-565.718
					C418.312,123.441,627.438,36.838,836.282,36.772L836.282,36.772z"/>
				<path fill="#7ACE7C" d="M836.282,36.772c-208.844,0.059-417.976,86.656-565.729,234.27
					C122.912,418.775,36.275,627.907,36.193,836.772c0.082,208.865,86.719,417.997,234.359,565.73
					c147.753,147.614,356.885,234.211,565.729,234.27l0,0c-208.844-0.062-417.973-86.662-565.723-234.276
					C122.922,1254.764,36.288,1045.634,36.206,836.772c0.082-208.862,86.716-417.991,234.353-565.724
					C418.308,123.434,627.437,36.834,836.282,36.772L836.282,36.772z"/>
				<path fill="#77C581" d="M836.282,36.772c-208.845,0.055-417.979,86.65-565.735,234.263
					C122.903,418.769,36.263,627.904,36.181,836.772c0.082,208.868,86.722,418.004,234.365,565.737
					c147.756,147.614,356.89,234.208,565.735,234.263l0,0c-208.844-0.059-417.976-86.656-565.729-234.27
					c-147.64-147.733-234.277-356.865-234.359-565.73c0.082-208.865,86.719-417.998,234.359-565.73
					C418.305,123.428,627.437,36.831,836.282,36.772L836.282,36.772z"/>
				<path fill="#75BD86" d="M836.282,36.772c-208.845,0.052-417.982,86.644-565.741,234.257
					C122.894,418.762,36.251,627.901,36.169,836.772c0.082,208.872,86.725,418.01,234.372,565.743
					c147.759,147.613,356.896,234.205,565.741,234.257l0,0c-208.845-0.055-417.979-86.65-565.735-234.263
					C122.903,1254.776,36.263,1045.641,36.181,836.772c0.082-208.868,86.722-418.004,234.365-565.737
					C418.302,123.422,627.437,36.828,836.282,36.772L836.282,36.772z"/>
				<path fill="#72B58B" d="M836.282,36.772c-208.845,0.048-417.985,86.637-565.747,234.25
					C122.884,418.756,36.239,627.898,36.157,836.772c0.082,208.875,86.727,418.016,234.378,565.75
					c147.762,147.613,356.902,234.202,565.747,234.25l0,0c-208.845-0.052-417.982-86.644-565.741-234.257
					C122.894,1254.782,36.251,1045.644,36.169,836.772c0.082-208.872,86.725-418.01,234.372-565.743
					C418.299,123.416,627.437,36.824,836.282,36.772L836.282,36.772z"/>
				<path fill="#6FAD91" d="M836.282,36.772c-208.846,0.045-417.988,86.631-565.753,234.244
					C122.875,418.75,36.227,627.894,36.145,836.772c0.082,208.878,86.73,418.022,234.384,565.756
					c147.765,147.613,356.907,234.199,565.753,234.244l0,0c-208.845-0.048-417.985-86.637-565.747-234.25
					c-147.65-147.734-234.296-356.875-234.378-565.75c0.082-208.875,86.727-418.016,234.378-565.75
					C418.296,123.41,627.436,36.821,836.282,36.772L836.282,36.772z"/>
				<path fill="#6CA596" d="M836.282,36.772C627.436,36.814,418.29,123.397,270.523,271.01
					C122.866,418.744,36.215,627.891,36.133,836.772c0.082,208.881,86.733,418.029,234.39,565.762
					c147.768,147.612,356.913,234.196,565.759,234.238l0,0c-208.846-0.045-417.988-86.631-565.753-234.244
					C122.875,1254.795,36.227,1045.651,36.145,836.772c0.082-208.878,86.73-418.022,234.384-565.756
					C418.293,123.404,627.436,36.818,836.282,36.772L836.282,36.772z"/>
				<path fill="#699C9B" d="M836.282,36.772c-208.846,0.038-417.994,86.619-565.765,234.231
					C122.856,418.738,36.203,627.888,36.121,836.772c0.082,208.885,86.736,418.035,234.396,565.769
					c147.771,147.612,356.919,234.193,565.765,234.231l0,0c-208.846-0.042-417.991-86.625-565.759-234.238
					c-147.657-147.734-234.308-356.881-234.39-565.762c0.082-208.881,86.733-418.029,234.39-565.763
					C418.29,123.397,627.436,36.814,836.282,36.772L836.282,36.772z"/>
				<path fill="#6694A0" d="M836.282,36.772c-208.846,0.035-417.997,86.613-565.77,234.225
					C122.847,418.731,36.191,627.884,36.109,836.772c0.082,208.888,86.738,418.041,234.402,565.775
					c147.774,147.612,356.924,234.19,565.77,234.225l0,0c-208.846-0.038-417.994-86.619-565.765-234.231
					C122.856,1254.807,36.203,1045.657,36.121,836.772c0.082-208.885,86.736-418.035,234.396-565.769
					C418.288,123.391,627.436,36.811,836.282,36.772L836.282,36.772z"/>
				<path fill="#638CA6" d="M836.282,36.772c-208.846,0.032-418,86.607-565.776,234.218
					C122.838,418.725,36.179,627.881,36.097,836.772c0.082,208.891,86.741,418.047,234.409,565.782
					c147.776,147.612,356.93,234.187,565.776,234.218l0,0c-208.846-0.035-417.997-86.613-565.77-234.225
					c-147.664-147.734-234.32-356.887-234.402-565.775c0.082-208.888,86.738-418.041,234.402-565.775
					C418.285,123.385,627.435,36.808,836.282,36.772L836.282,36.772z"/>
				<path fill="#6084AB" d="M836.282,36.772c-208.846,0.028-418.002,86.6-565.782,234.212
					C122.829,418.719,36.167,627.878,36.085,836.772c0.082,208.895,86.744,418.053,234.415,565.788
					c147.779,147.611,356.935,234.183,565.782,234.212l0,0c-208.846-0.032-418-86.607-565.776-234.218
					C122.838,1254.82,36.179,1045.664,36.097,836.772c0.082-208.891,86.741-418.047,234.409-565.782
					C418.282,123.379,627.435,36.804,836.282,36.772L836.282,36.772z"/>
				<path fill="#5D7BB0" d="M836.282,36.772c-208.847,0.025-418.005,86.594-565.787,234.205
					C122.82,418.713,36.156,627.875,36.074,836.772c0.082,208.898,86.747,418.06,234.421,565.795
					c147.782,147.611,356.941,234.18,565.787,234.205l0,0c-208.846-0.028-418.002-86.6-565.782-234.212
					C122.829,1254.826,36.167,1045.667,36.085,836.772c0.082-208.895,86.744-418.053,234.415-565.788
					C418.279,123.373,627.435,36.801,836.282,36.772L836.282,36.772z"/>
				<path fill="#5A73B5" d="M836.282,36.772c-208.847,0.022-418.008,86.588-565.793,234.199
					C122.812,418.707,36.144,627.871,36.062,836.772c0.082,208.901,86.749,418.066,234.427,565.801
					c147.785,147.611,356.946,234.177,565.793,234.199l0,0c-208.847-0.025-418.005-86.594-565.787-234.205
					C122.82,1254.832,36.156,1045.67,36.074,836.772c0.082-208.898,86.747-418.06,234.421-565.795
					C418.277,123.367,627.435,36.797,836.282,36.772L836.282,36.772z"/>
				<path fill="#576BBB" d="M836.282,36.772c-208.847,0.018-418.01,86.582-565.798,234.192
					C122.803,418.7,36.133,627.868,36.051,836.772c0.082,208.904,86.752,418.072,234.433,565.807
					c147.788,147.61,356.951,234.174,565.798,234.193l0,0c-208.847-0.022-418.008-86.588-565.793-234.199
					c-147.677-147.735-234.345-356.9-234.427-565.801c0.082-208.901,86.749-418.066,234.427-565.801
					C418.274,123.361,627.435,36.794,836.282,36.772L836.282,36.772z"/>
				<path fill="#5463C0" d="M836.282,36.772c-208.847,0.015-418.013,86.576-565.804,234.186
					C122.794,418.694,36.121,627.865,36.039,836.772c0.082,208.908,86.755,418.078,234.439,565.814
					c147.791,147.61,356.957,234.171,565.804,234.186l0,0c-208.847-0.018-418.01-86.582-565.798-234.193
					C122.803,1254.844,36.133,1045.677,36.051,836.772c0.082-208.904,86.752-418.072,234.433-565.807
					C418.271,123.354,627.435,36.791,836.282,36.772L836.282,36.772z"/>
				<path fill="#515AC5" d="M836.282,36.772c-208.847,0.012-418.015,86.57-565.809,234.18
					C122.785,418.688,36.11,627.861,36.028,836.772c0.082,208.911,86.757,418.084,234.445,565.82
					c147.793,147.61,356.962,234.168,565.809,234.18l0,0c-208.847-0.015-418.013-86.576-565.804-234.186
					C122.794,1254.851,36.121,1045.68,36.039,836.772c0.082-208.908,86.755-418.078,234.439-565.814
					C418.269,123.348,627.435,36.787,836.282,36.772L836.282,36.772z"/>
				<path fill="#4E52CA" d="M836.282,36.772c-208.847,0.008-418.018,86.564-565.814,234.173
					C122.777,418.682,36.099,627.858,36.017,836.772c0.082,208.914,86.76,418.091,234.451,565.827
					c147.796,147.61,356.967,234.165,565.814,234.173l0,0c-208.847-0.012-418.015-86.57-565.809-234.18
					C122.785,1254.857,36.11,1045.683,36.028,836.772c0.082-208.911,86.757-418.084,234.445-565.82
					C418.266,123.342,627.435,36.784,836.282,36.772L836.282,36.772z"/>
				<path fill="#4B4AD0" d="M836.282,36.772c-208.847,0.005-418.02,86.557-565.819,234.167
					C122.768,418.676,36.087,627.855,36.005,836.772c0.082,208.918,86.763,418.097,234.457,565.833
					c147.799,147.609,356.973,234.162,565.819,234.167l0,0c-208.847-0.008-418.018-86.564-565.814-234.173
					C122.777,1254.863,36.099,1045.687,36.017,836.772c0.082-208.914,86.76-418.091,234.451-565.827
					C418.264,123.336,627.435,36.781,836.282,36.772L836.282,36.772z"/>
				<path fill="#4842D5" d="M836.282,36.772c-208.847,0.002-418.023,86.551-565.825,234.16
					C122.76,418.669,36.076,627.852,35.994,836.772c0.082,208.921,86.765,418.103,234.463,565.84
					c147.802,147.609,356.978,234.159,565.825,234.16l0,0c-208.847-0.005-418.02-86.557-565.819-234.167
					C122.768,1254.869,36.087,1045.69,36.005,836.772c0.082-208.918,86.763-418.097,234.457-565.833
					C418.261,123.33,627.435,36.777,836.282,36.772L836.282,36.772z"/>
				<path fill="#463ADA" d="M836.282,36.772c-208.847-0.002-418.025,86.545-565.83,234.154
					C122.751,418.663,36.065,627.848,35.983,836.772c0.082,208.924,86.768,418.109,234.469,565.846
					c147.804,147.609,356.983,234.156,565.83,234.154l0,0c-208.847-0.002-418.023-86.551-565.825-234.16
					C122.76,1254.875,36.076,1045.693,35.994,836.772c0.082-208.921,86.765-418.103,234.463-565.84
					C418.259,123.324,627.435,36.774,836.282,36.772L836.282,36.772z"/>
				<path fill="#4331DF" d="M836.282,36.772c-208.847-0.005-418.028,86.539-565.835,234.148
					C122.743,418.657,36.054,627.845,35.972,836.772c0.082,208.927,86.771,418.115,234.474,565.852
					c147.807,147.609,356.988,234.153,565.835,234.148l0,0c-208.847,0.002-418.025-86.545-565.83-234.154
					c-147.7-147.737-234.386-356.922-234.469-565.846c0.082-208.924,86.768-418.109,234.469-565.846
					C418.256,123.318,627.435,36.771,836.282,36.772L836.282,36.772z"/>
				<path fill="#4029E5" d="M836.282,36.772c-208.847-0.009-418.03,86.533-565.84,234.141
					C122.735,418.651,36.043,627.842,35.961,836.772c0.082,208.931,86.773,418.122,234.48,565.859
					c147.81,147.608,356.993,234.15,565.84,234.141l0,0c-208.847,0.005-418.028-86.539-565.835-234.148
					C122.743,1254.888,36.054,1045.7,35.972,836.772c0.082-208.928,86.771-418.115,234.474-565.853
					C418.254,123.311,627.435,36.767,836.282,36.772L836.282,36.772z"/>
				<path fill="#3D21EA" d="M836.282,36.772c-208.847-0.012-418.032,86.527-565.845,234.135
					C122.726,418.645,36.033,627.838,35.95,836.772c0.082,208.934,86.776,418.128,234.486,565.865
					c147.813,147.608,356.998,234.146,565.845,234.135l0,0c-208.847,0.009-418.03-86.533-565.84-234.141
					c-147.707-147.737-234.398-356.928-234.48-565.859c0.082-208.931,86.773-418.122,234.48-565.859
					C418.251,123.305,627.435,36.764,836.282,36.772L836.282,36.772z"/>
				<path fill="#3A19EF" d="M836.282,36.772c-208.847-0.015-418.035,86.521-565.85,234.128
					C122.718,418.638,36.022,627.835,35.94,836.772c0.082,208.937,86.779,418.134,234.492,565.872
					c147.815,147.608,357.003,234.144,565.85,234.128l0,0c-208.847,0.012-418.032-86.527-565.845-234.135
					C122.726,1254.9,36.033,1045.707,35.95,836.772c0.082-208.934,86.776-418.128,234.486-565.865
					C418.249,123.299,627.435,36.761,836.282,36.772L836.282,36.772z"/>
				<path fill="#3710F4" d="M836.282,36.772c-208.846-0.019-418.037,86.515-565.855,234.122
					C122.71,418.632,36.011,627.832,35.929,836.772c0.082,208.941,86.781,418.14,234.498,565.878
					c147.818,147.607,357.008,234.14,565.855,234.122l0,0c-208.847,0.015-418.035-86.521-565.85-234.128
					C122.718,1254.906,36.022,1045.71,35.94,836.772c0.082-208.937,86.779-418.134,234.492-565.872
					C418.247,123.293,627.435,36.757,836.282,36.772L836.282,36.772z"/>
				<path fill="#3408FA" d="M836.282,36.772c-208.846-0.022-418.039,86.508-565.86,234.115
					C122.702,418.626,36.001,627.828,35.918,836.772c0.082,208.944,86.784,418.146,234.503,565.885
					c147.821,147.607,357.013,234.137,565.86,234.115l0,0c-208.846,0.019-418.037-86.515-565.855-234.122
					C122.71,1254.913,36.011,1045.713,35.929,836.772c0.082-208.941,86.781-418.14,234.498-565.878
					C418.245,123.287,627.435,36.754,836.282,36.772L836.282,36.772z"/>
				<path fill="#3100FF" d="M836.282,36.772c-208.846-0.025-418.041,86.502-565.864,234.109
					C122.694,418.62,35.99,627.825,35.908,836.772c0.082,208.947,86.786,418.153,234.509,565.891
					c147.823,147.607,357.018,234.134,565.864,234.109l0,0c-208.846,0.022-418.039-86.508-565.86-234.115
					c-147.72-147.738-234.421-356.941-234.503-565.885c0.082-208.944,86.784-418.146,234.503-565.885
					C418.242,123.281,627.435,36.75,836.282,36.772L836.282,36.772z"/>
				<path fill="#3100FF" d="M836.282,36.772c-207.739-1.143-416.713,84.555-564.555,231.96
					C123.605,416.649,36.583,626.742,36.501,836.772c0.082,210.03,87.104,420.123,235.225,568.04
					c147.842,147.405,356.816,233.103,564.555,231.96l0,0c-208.846,0.025-418.041-86.502-565.864-234.109
					C122.694,1254.925,35.99,1045.72,35.908,836.772c0.082-208.947,86.786-418.153,234.509-565.891
					C418.24,123.275,627.435,36.747,836.282,36.772L836.282,36.772z"/>
				<path fill="#3608FF" d="M836.282,36.772c-204.532-2.25-411.293,82.818-557.423,229.82
					C131.68,414.882,45.445,625.698,45.363,836.772c0.082,211.075,86.317,421.89,233.495,570.18
					c146.13,147.001,352.891,232.07,557.423,229.82l0,0c-207.739,1.143-416.713-84.555-564.555-231.96
					c-148.121-147.917-235.143-358.01-235.225-568.04c0.082-210.03,87.104-420.123,235.225-568.04
					C419.568,121.328,628.543,35.629,836.282,36.772L836.282,36.772z"/>
				<path fill="#3C10FF" d="M836.282,36.772c-199.248-3.336-401.799,81.322-544.476,227.71
					C146.942,413.35,62.614,624.702,62.534,836.772c0.081,212.07,84.408,423.423,229.272,572.29
					c142.677,146.388,345.228,231.046,544.476,227.71l0,0c-204.532,2.25-411.293-82.818-557.423-229.82
					c-147.178-148.29-233.413-359.106-233.495-570.18c0.082-211.075,86.317-421.89,233.495-570.18
					C424.989,119.591,631.749,34.522,836.282,36.772L836.282,36.772z"/>
				<path fill="#4219FF" d="M836.282,36.772c-191.93-4.389-388.288,80.101-525.787,225.652
					C169.339,412.085,88.038,623.765,87.96,836.772c0.078,213.008,81.379,424.687,222.534,574.348
					c137.499,145.551,333.857,230.042,525.787,225.652l0,0c-199.248,3.336-401.799-81.322-544.476-227.71
					c-144.864-148.868-229.191-360.22-229.272-572.29c0.081-212.07,84.408-423.423,229.272-572.29
					C434.483,118.094,637.034,33.436,836.282,36.772L836.282,36.772z"/>
				<path fill="#4822FF" d="M836.282,36.772c-182.645-5.4-370.853,79.197-501.493,223.671
					C198.752,411.126,121.567,622.894,121.492,836.772c0.075,213.878,77.26,425.647,213.296,576.329
					c130.64,144.474,318.848,229.071,501.493,223.671l0,0c-191.93,4.389-388.288-80.101-525.787-225.652
					C169.339,1261.459,88.038,1049.78,87.96,836.772c0.078-213.008,81.379-424.687,222.534-574.348
					C447.993,116.874,644.352,32.383,836.282,36.772L836.282,36.772z"/>
				<path fill="#4E2AFF" d="M836.282,36.772C664.8,30.416,486.664,115.424,364.482,258.56
					C234.987,410.507,162.951,622.096,162.88,836.772c0.071,214.676,72.108,426.265,201.603,578.213
					c122.181,143.136,300.317,228.144,471.799,221.787l0,0c-182.645,5.4-370.853-79.197-501.493-223.671
					c-136.036-150.682-213.221-362.451-213.296-576.329c0.075-213.878,77.26-425.647,213.296-576.329
					C465.429,115.969,653.637,31.373,836.282,36.772L836.282,36.772z"/>
				<path fill="#5533FF" d="M836.282,36.772c-158.551-7.251-324.736,78.508-436.975,220.023
					C277.782,410.263,211.836,621.376,211.77,836.772c0.066,215.396,66.012,426.509,187.536,579.977
					c112.24,141.515,278.424,227.274,436.975,220.023l0,0c-171.482,6.357-349.618-78.651-471.799-221.787
					c-129.495-151.948-201.532-363.536-201.603-578.213c0.071-214.676,72.108-426.265,201.603-578.213
					C486.664,115.424,664.8,30.416,836.282,36.772L836.282,36.772z"/>
				<path fill="#5B3CFF" d="M836.282,36.772C692.297,28.699,539.9,115.577,438.924,255.171
					C326.807,410.417,267.767,620.737,267.707,836.772c0.06,216.036,59.101,426.356,171.217,581.602
					c100.976,139.593,253.373,226.472,397.358,218.398l0,0c-158.551,7.251-324.736-78.508-436.975-220.023
					c-121.524-153.468-187.47-364.581-187.536-579.977c0.066-215.396,66.012-426.509,187.536-579.977
					C511.546,115.281,677.731,29.522,836.282,36.772L836.282,36.772z"/>
				<path fill="#6145FF" d="M836.282,36.772C772.756,32.374,706.36,49.9,647.711,85.549
					c-62.647,38.126-118.754,96.773-164.774,168.156c-49.223,76.412-86.947,166.605-112.712,264.513
					c-26.711,101.61-40.076,209.485-40.09,318.554c0.014,109.07,13.379,216.944,40.09,318.554
					c25.766,97.907,63.49,188.101,112.712,264.513c46.02,71.383,102.127,130.031,164.774,168.156
					c58.648,35.649,125.045,53.175,188.57,48.776l0,0c-143.984,8.073-296.382-78.805-397.358-218.398
					c-112.117-155.246-171.157-365.566-171.217-581.602c0.06-216.036,59.101-426.356,171.217-581.602
					C539.9,115.577,692.297,28.699,836.282,36.772L836.282,36.772z"/>
				<path fill="#674EFF" d="M836.282,36.772c-54.735-4.712-112.747,12.917-162.813,47.891
					c-54.851,38.364-103.059,96.989-142.581,167.753c-42.96,76.98-75.428,167.069-97.701,264.872
					c-23.235,102.141-34.772,210.095-34.784,319.484c0.012,109.389,11.549,217.343,34.784,319.484
					c22.273,97.803,54.741,187.892,97.701,264.872c39.523,70.764,87.731,129.389,142.581,167.753
					c50.066,34.974,108.078,52.603,162.813,47.891l0,0c-63.526,4.399-129.922-13.128-188.57-48.776
					c-62.647-38.126-118.754-96.773-164.774-168.156c-49.223-76.412-86.947-166.605-112.712-264.513
					c-26.711-101.61-40.076-209.485-40.09-318.554c0.014-109.07,13.379-216.944,40.09-318.554
					c25.766-97.907,63.49-188.101,112.712-264.513c46.02-71.383,102.127-130.031,164.774-168.156
					C706.36,49.9,772.756,32.374,836.282,36.772L836.282,36.772z"/>
				<path fill="#6E57FF" d="M836.282,36.772c-45.357-4.971-94.403,12.985-135.304,47.139
					c-46.432,38.82-86.081,97.304-118.714,167.408c-36.083,77.579-62.944,167.494-81.467,265.177
					c-19.437,102.618-29.018,210.617-29.027,320.276c0.01,109.659,9.591,217.658,29.027,320.276
					c18.523,97.683,45.383,187.599,81.467,265.177c32.633,70.104,72.282,128.588,118.714,167.408
					c40.902,34.154,89.947,52.11,135.304,47.139l0,0c-54.735,4.712-112.747-12.917-162.813-47.891
					c-54.851-38.364-103.059-96.989-142.581-167.753c-42.96-76.98-75.428-167.069-97.701-264.872
					c-23.235-102.141-34.772-210.095-34.784-319.484c0.012-109.389,11.549-217.343,34.784-319.484
					c22.273-97.803,54.741-187.892,97.701-264.872c39.523-70.764,87.731-129.389,142.581-167.753
					C723.535,49.689,781.547,32.061,836.282,36.772L836.282,36.772z"/>
				<path fill="#7461FF" d="M836.282,36.772c-35.475-5.168-75.004,13.417-106.337,46.529
					c-37.385,39.556-67.975,97.68-93.441,167.126c-28.641,78.169-49.638,167.861-64.2,265.424
					c-15.36,103.024-22.883,211.043-22.89,320.921c0.008,109.878,7.53,217.896,22.89,320.921
					c14.562,97.563,35.559,187.255,64.2,265.424c25.466,69.446,56.056,127.57,93.441,167.126
					c31.333,33.111,70.863,51.696,106.337,46.529l0,0c-45.357,4.971-94.403-12.985-135.304-47.139
					c-46.432-38.82-86.081-97.303-118.714-167.408c-36.083-77.579-62.944-167.494-81.467-265.177
					c-19.437-102.618-29.018-210.617-29.027-320.276c0.01-109.659,9.591-217.658,29.027-320.276
					c18.523-97.683,45.383-187.598,81.467-265.177c32.633-70.104,72.282-128.588,118.714-167.408
					C741.879,49.758,790.924,31.801,836.282,36.772L836.282,36.772z"/>
				<path fill="#7B6AFF" d="M836.282,36.772c-25.154-5.277-54.57,14.278-76.221,46.067c-27.613,40.593-48.924,98.061-67.054,166.913
					c-20.704,78.696-35.673,168.154-46.112,265.611c-11.057,103.344-16.444,211.365-16.449,321.409
					c0.006,110.043,5.392,218.065,16.449,321.409c10.439,97.457,25.408,186.915,46.112,265.611
					c18.129,68.852,39.441,126.32,67.054,166.913c21.651,31.789,51.067,51.344,76.221,46.068l0,0
					c-35.475,5.168-75.004-13.417-106.337-46.529c-37.385-39.556-67.975-97.68-93.441-167.126
					c-28.641-78.169-49.638-167.861-64.2-265.424c-15.36-103.024-22.883-211.043-22.89-320.921
					c0.008-109.878,7.53-217.896,22.89-320.921c14.562-97.563,35.559-187.255,64.2-265.424
					c25.466-69.446,56.056-127.571,93.441-167.126C761.277,50.19,800.807,31.605,836.282,36.772L836.282,36.772z"/>
				<path fill="#8173FF" d="M836.282,36.772c-14.394-5.189-32.984,15.456-45.279,45.76c-16.929,41.778-29.152,98.372-39.864,166.77
					c-12.376,79.094-21.229,168.357-27.43,265.735c-6.588,103.563-9.785,211.581-9.788,321.734
					c0.003,110.153,3.201,218.172,9.788,321.734c6.201,97.378,15.054,186.641,27.43,265.735
					c10.711,68.398,22.935,124.992,39.864,166.77c12.295,30.304,30.885,50.949,45.279,45.76l0,0
					c-25.154,5.277-54.57-14.278-76.221-46.068c-27.613-40.593-48.924-98.061-67.054-166.913
					c-20.704-78.696-35.673-168.154-46.112-265.611c-11.057-103.344-16.444-211.365-16.449-321.409
					c0.006-110.043,5.392-218.065,16.449-321.409c10.439-97.457,25.408-186.915,46.112-265.611
					c18.129-68.852,39.441-126.32,67.054-166.913C781.712,51.051,811.128,31.496,836.282,36.772L836.282,36.772z"/>
				<path fill="#8173FF" d="M836.282,36.772c-0.348-1.704-2.487,16.505-3.366,45.596c-1.289,42.719-2.171,98.561-2.965,166.694
					c-0.923,79.324-1.58,168.467-2.041,265.801c-0.491,103.681-0.728,211.696-0.728,321.908c0,110.212,0.238,218.227,0.728,321.908
					c0.461,97.334,1.117,186.477,2.041,265.801c0.794,68.134,1.676,123.975,2.965,166.694c0.879,29.091,3.019,47.3,3.366,45.596l0,0
					c-14.394,5.189-32.984-15.456-45.279-45.76c-16.929-41.778-29.152-98.372-39.864-166.77
					c-12.376-79.094-21.229-168.357-27.43-265.735c-6.588-103.563-9.785-211.581-9.788-321.734
					c0.003-110.153,3.201-218.172,9.788-321.734c6.201-97.378,15.054-186.642,27.43-265.735
					c10.711-68.398,22.935-124.992,39.864-166.77C803.297,52.229,821.888,31.584,836.282,36.772L836.282,36.772z"/>
				<path fill="#8A7CFF" d="M836.282,36.772c12.028-5.1,28.224,15.705,38.611,45.715c14.521,42.009,24.871,98.422,33.997,166.749
					c10.564,79.156,18.108,168.387,23.396,265.753c5.62,103.595,8.346,211.613,8.349,321.782
					c-0.003,110.169-2.729,218.187-8.349,321.782c-5.288,97.366-12.832,186.598-23.396,265.753
					c-9.126,68.327-19.476,124.74-33.997,166.75c-10.387,30.01-26.583,50.815-38.611,45.715l0,0
					c-0.348,1.704-2.487-16.505-3.366-45.596c-1.289-42.719-2.171-98.561-2.965-166.694c-0.923-79.324-1.58-168.467-2.041-265.801
					c-0.491-103.681-0.728-211.696-0.728-321.908c0-110.212,0.238-218.227,0.728-321.908c0.461-97.334,1.117-186.477,2.041-265.801
					c0.794-68.134,1.676-123.975,2.965-166.694C833.794,53.277,835.934,35.069,836.282,36.772L836.282,36.772z"/>
				<path fill="#9385FF" d="M836.282,36.772c26.401-5.27,57.053,14.154,79.846,46.114c28.817,40.457,51.229,98.018,70.235,166.935
					c21.67,78.638,37.36,168.124,48.295,265.592c11.578,103.311,17.222,211.333,17.227,321.359
					c-0.006,110.027-5.649,218.048-17.227,321.359c-10.935,97.468-26.626,186.953-48.295,265.592
					c-19.006,68.917-41.418,126.478-70.235,166.935c-22.793,31.96-53.445,51.384-79.846,46.114l0,0
					c12.028,5.1,28.224-15.705,38.611-45.715c14.521-42.009,24.871-98.422,33.997-166.75
					c10.564-79.156,18.108-168.387,23.396-265.753c5.62-103.595,8.346-211.613,8.349-321.782
					c-0.003-110.169-2.729-218.187-8.349-321.782c-5.288-97.366-12.832-186.598-23.396-265.753
					c-9.126-68.327-19.476-124.74-33.997-166.749C864.506,52.478,848.31,31.673,836.282,36.772L836.282,36.772z"/>
				<path fill="#9C8DFF" d="M836.282,36.772c39.985-5.088,83.87,13.172,119.549,46.786c41.542,39.186,76.261,97.506,104.983,167.245
					c32.06,77.907,55.724,167.704,72.094,265.32c17.228,102.851,25.689,210.863,25.698,320.649
					c-0.009,109.786-8.469,217.798-25.698,320.649c-16.37,97.616-40.034,187.413-72.094,265.32
					c-28.722,69.739-63.441,128.059-104.983,167.245c-35.679,33.614-79.565,51.874-119.549,46.786l0,0
					c26.401,5.27,57.053-14.154,79.846-46.114c28.817-40.457,51.229-98.018,70.235-166.935
					c21.67-78.638,37.36-168.124,48.295-265.592c11.578-103.311,17.222-211.333,17.227-321.359
					c-0.006-110.027-5.649-218.048-17.227-321.359c-10.935-97.468-26.626-186.953-48.295-265.592
					c-19.006-68.917-41.418-126.478-70.235-166.935C893.334,50.927,862.683,31.502,836.282,36.772L836.282,36.772z"/>
				<path fill="#A696FF" d="M836.282,36.772c52.741-4.773,108.849,12.905,156.965,47.716c53.07,38.442,99.468,97.05,137.52,167.672
					c41.514,77.109,72.788,167.165,94.266,264.943c22.434,102.25,33.556,210.217,33.567,319.669
					c-0.011,109.452-11.132,217.418-33.567,319.669c-21.477,97.778-52.751,187.834-94.266,264.943
					c-38.053,70.622-84.45,129.23-137.52,167.672c-48.116,34.81-104.224,52.489-156.965,47.716l0,0
					c39.985,5.088,83.87-13.172,119.549-46.786c41.542-39.186,76.261-97.506,104.983-167.245
					c32.06-77.907,55.724-167.704,72.094-265.32c17.228-102.851,25.689-210.863,25.698-320.649
					c-0.009-109.786-8.469-217.798-25.698-320.649c-16.37-97.616-40.034-187.413-72.094-265.32
					c-28.722-69.739-63.441-128.059-104.983-167.245C920.152,49.944,876.266,31.685,836.282,36.772L836.282,36.772z"/>
				<path fill="#AF9FFF" d="M836.282,36.772c64.488-4.36,131.802,13.166,191.387,48.886c63.496,38.11,120.458,96.755,167.19,168.206
					c102.577,157.024,154.95,366.375,155.005,582.909c-0.055,216.533-52.428,425.885-155.005,582.909
					c-46.732,71.45-103.694,130.096-167.19,168.206c-59.585,35.719-126.899,53.245-191.387,48.886l0,0
					c52.741,4.773,108.849-12.905,156.965-47.716c53.07-38.442,99.468-97.05,137.52-167.672
					c41.514-77.109,72.788-167.165,94.266-264.943c22.434-102.25,33.556-210.217,33.567-319.669
					c-0.011-109.452-11.132-217.418-33.567-319.669c-21.477-97.778-52.751-187.835-94.266-264.943
					c-38.053-70.622-84.45-129.23-137.52-167.672C945.13,49.678,889.023,31.999,836.282,36.772L836.282,36.772z"/>
				<path fill="#B8A8FF" d="M836.282,36.772c150.673-7.716,309.444,78.616,415.594,219.104
					c116.49,154.421,178.701,365.135,178.764,580.896c-0.063,215.761-62.274,426.474-178.764,580.896
					c-106.15,140.488-264.921,226.82-415.594,219.104l0,0c64.488,4.36,131.802-13.167,191.387-48.886
					c63.496-38.11,120.458-96.755,167.19-168.206c102.577-157.024,154.95-366.375,155.005-582.909
					c-0.055-216.533-52.428-425.885-155.005-582.909c-46.732-71.45-103.694-130.096-167.19-168.206
					C968.083,49.939,900.77,32.413,836.282,36.772L836.282,36.772z"/>
				<path fill="#C1B0FF" d="M836.282,36.772c168.757-6.561,344.398,78.583,464.493,221.384
					c127.848,152.263,198.608,363.773,198.678,578.616c-0.07,214.843-70.831,426.353-198.678,578.616
					c-120.095,142.801-295.736,227.945-464.493,221.384l0,0c150.673,7.716,309.444-78.616,415.594-219.104
					c116.49-154.422,178.701-365.135,178.764-580.896c-0.063-215.761-62.274-426.474-178.764-580.896
					C1145.725,115.389,986.955,29.057,836.282,36.772L836.282,36.772z"/>
				<path fill="#CAB9FF" d="M836.282,36.772c183.756-5.291,372.951,79.279,504.423,223.884
					c136.666,150.559,214.354,362.33,214.429,576.116c-0.075,213.786-77.763,425.557-214.429,576.116
					c-131.472,144.604-320.667,229.175-504.423,223.884l0,0c168.757,6.561,344.398-78.583,464.493-221.384
					c127.848-152.263,198.608-363.773,198.678-578.616c-0.07-214.843-70.831-426.353-198.678-578.616
					C1180.679,115.356,1005.038,30.211,836.282,36.772L836.282,36.772z"/>
				<path fill="#CAB9FF" d="M836.282,36.772c185.887-5.075,376.968,79.455,510.027,224.308
					c137.863,150.323,216.508,362.09,216.584,575.692c-0.076,213.602-78.721,425.369-216.584,575.692
					c-133.059,144.853-324.141,229.383-510.027,224.308l0,0c183.756,5.291,372.951-79.279,504.423-223.884
					c136.666-150.559,214.354-362.33,214.429-576.116c-0.075-213.786-77.763-425.558-214.429-576.116
					C1209.233,116.052,1020.037,31.481,836.282,36.772L836.282,36.772z"/>
				<path fill="#C6B4FF" d="M836.282,36.772c187.928-4.857,380.804,79.646,515.374,224.737
					c138.993,150.098,218.546,361.849,218.623,575.263c-0.077,213.414-79.63,425.165-218.623,575.263
					c-134.57,145.09-327.446,229.593-515.374,224.737l0,0c185.887,5.075,376.968-79.455,510.027-224.308
					c137.863-150.323,216.508-362.09,216.584-575.692c-0.076-213.602-78.721-425.369-216.584-575.692
					C1213.25,116.227,1022.168,31.697,836.282,36.772L836.282,36.772z"/>
				<path fill="#C1AEFF" d="M836.282,36.772c189.878-4.636,384.457,79.854,520.46,225.169
					c140.056,149.884,220.466,361.608,220.544,574.831c-0.078,213.223-80.488,424.947-220.544,574.831
					c-136.003,145.315-330.583,229.805-520.46,225.169l0,0c187.928,4.857,380.804-79.646,515.374-224.737
					c138.993-150.098,218.546-361.849,218.623-575.263c-0.077-213.414-79.63-425.165-218.623-575.263
					C1217.085,116.419,1024.209,31.916,836.282,36.772L836.282,36.772z"/>
				<path fill="#BBA7FF" d="M836.282,36.772c191.736-4.413,387.927,80.077,525.286,225.605
					c141.052,149.682,222.27,361.366,222.348,574.395c-0.078,213.029-81.296,424.713-222.348,574.395
					c-137.358,145.529-333.549,230.019-525.286,225.605l0,0c189.878,4.636,384.457-79.854,520.46-225.169
					c140.056-149.884,220.466-361.608,220.544-574.831c-0.078-213.223-80.488-424.947-220.544-574.831
					C1220.739,116.626,1026.159,32.136,836.282,36.772L836.282,36.772z"/>
				<path fill="#B5A0FF" d="M836.282,36.772c193.502-4.189,391.213,80.314,529.847,226.045
					c141.983,149.49,223.956,361.123,224.035,573.955c-0.079,212.831-82.052,424.465-224.035,573.955
					c-138.634,145.731-336.345,230.234-529.847,226.045l0,0c191.736,4.413,387.927-80.077,525.286-225.605
					c141.052-149.682,222.27-361.366,222.348-574.395c-0.078-213.029-81.296-424.713-222.348-574.395
					C1224.209,116.849,1028.018,32.359,836.282,36.772L836.282,36.772z"/>
				<path fill="#AF98FF" d="M836.282,36.772c195.175-3.962,394.314,80.566,534.144,226.489
					c142.847,149.308,225.524,360.88,225.603,573.511c-0.079,212.631-82.756,424.203-225.603,573.511
					c-139.83,145.922-338.968,230.45-534.144,226.489l0,0c193.502,4.188,391.213-80.314,529.847-226.045
					c141.983-149.49,223.956-361.123,224.035-573.955c-0.079-212.831-82.052-424.465-224.035-573.955
					C1227.495,117.087,1029.784,32.584,836.282,36.772L836.282,36.772z"/>
				<path fill="#A991FF" d="M836.282,36.772c196.754-3.733,397.227,80.832,538.174,226.935
					c143.645,149.137,226.974,360.638,227.054,573.065c-0.08,212.427-83.408,423.927-227.054,573.065
					c-140.946,146.103-341.419,230.668-538.174,226.935l0,0c195.175,3.962,394.314-80.566,534.144-226.489
					c142.847-149.308,225.524-360.88,225.603-573.511c-0.079-212.631-82.756-424.203-225.603-573.511
					C1230.595,117.339,1031.457,32.811,836.282,36.772L836.282,36.772z"/>
				<path fill="#A289FF" d="M836.282,36.772c198.239-3.503,399.953,81.112,541.935,227.384
					c144.377,148.977,228.306,360.395,228.386,572.616c-0.08,212.221-84.009,423.639-228.386,572.615
					c-141.982,146.272-343.697,230.887-541.935,227.385l0,0c196.754,3.733,397.227-80.833,538.174-226.935
					C1518.1,1260.7,1601.429,1049.2,1601.509,836.772c-0.08-212.427-83.408-423.927-227.054-573.065
					C1233.509,117.605,1033.036,33.039,836.282,36.772L836.282,36.772z"/>
				<path fill="#9B80FF" d="M836.282,36.772c199.628-3.271,402.491,81.405,545.428,227.836
					c145.044,148.827,229.519,360.152,229.6,572.164c-0.081,212.012-84.556,423.337-229.6,572.164
					c-142.936,146.431-345.8,231.107-545.428,227.836l0,0c198.239,3.503,399.953-81.112,541.935-227.385
					c144.377-148.977,228.306-360.395,228.386-572.615c-0.08-212.221-84.009-423.639-228.386-572.616
					C1236.235,117.885,1034.52,33.27,836.282,36.772L836.282,36.772z"/>
				<path fill="#9478FF" d="M836.282,36.772c200.921-3.037,404.84,81.711,548.65,228.291
					c145.645,148.686,230.615,359.91,230.696,571.709c-0.081,211.8-85.051,423.023-230.696,571.709
					c-143.81,146.58-347.729,231.328-548.65,228.291l0,0c199.628,3.271,402.491-81.405,545.428-227.836
					c145.044-148.827,229.519-360.152,229.6-572.164c-0.081-212.012-84.556-423.337-229.6-572.164
					C1238.773,118.178,1035.909,33.502,836.282,36.772L836.282,36.772z"/>
				<path fill="#8D6FFF" d="M836.282,36.772c202.118-2.803,406.999,82.029,551.6,228.747
					c146.181,148.556,231.592,359.668,231.673,571.253c-0.081,211.585-85.492,422.696-231.673,571.253
					c-144.602,146.718-349.482,231.55-551.6,228.747l0,0c200.921,3.037,404.84-81.711,548.65-228.291
					c145.645-148.686,230.615-359.91,230.696-571.709c-0.081-211.8-85.051-423.023-230.696-571.709
					C1241.121,118.484,1037.202,33.735,836.282,36.772L836.282,36.772z"/>
				<path fill="#8667FF" d="M836.282,36.772c203.218-2.567,408.967,82.36,554.279,229.206
					c146.651,148.436,232.451,359.426,232.533,570.794c-0.082,211.368-85.881,422.358-232.533,570.794
					c-145.312,146.846-351.061,231.773-554.279,229.206l0,0c202.118,2.803,406.999-82.029,551.6-228.747
					c146.181-148.556,231.592-359.668,231.673-571.253c-0.081-211.585-85.492-422.697-231.673-571.253
					C1243.28,118.802,1038.399,33.97,836.282,36.772L836.282,36.772z"/>
				<path fill="#7F5EFF" d="M836.282,36.772c204.221-2.329,410.744,82.702,556.684,229.666
					c147.057,148.325,233.193,359.185,233.275,570.334c-0.082,211.148-86.217,422.009-233.275,570.334
					c-145.94,146.964-352.463,231.996-556.684,229.666l0,0c203.218,2.567,408.967-82.36,554.279-229.206
					c146.651-148.436,232.451-359.426,232.533-570.794c-0.082-211.368-85.881-422.358-232.533-570.794
					C1245.249,119.132,1039.499,34.206,836.282,36.772L836.282,36.772z"/>
				<path fill="#7755FF" d="M836.282,36.772c205.126-2.091,412.33,83.055,558.816,230.128
					c147.399,148.224,233.817,358.945,233.899,569.872c-0.082,210.926-86.5,421.648-233.899,569.872
					c-146.486,147.073-353.69,232.219-558.816,230.128l0,0c204.221,2.329,410.744-82.702,556.684-229.666
					c147.057-148.325,233.193-359.185,233.275-570.334c-0.082-211.148-86.217-422.009-233.275-570.334
					C1247.026,119.474,1040.502,34.443,836.282,36.772L836.282,36.772z"/>
				<path fill="#704CFF" d="M836.282,36.772c205.933-1.852,413.724,83.42,560.674,230.591
					c147.676,148.132,234.324,358.707,234.407,569.409c-0.082,210.702-86.731,421.277-234.407,569.409
					c-146.95,147.171-354.741,232.443-560.674,230.591l0,0c205.126,2.091,412.33-83.055,558.816-230.128
					c147.399-148.224,233.817-358.946,233.899-569.872c-0.082-210.926-86.5-421.648-233.899-569.872
					C1248.612,119.828,1041.407,34.681,836.282,36.772L836.282,36.772z"/>
				<path fill="#6843FF" d="M836.282,36.772c206.642-1.612,414.926,83.795,562.259,231.055
					c147.889,148.05,234.715,358.469,234.797,568.945c-0.082,210.476-86.909,420.895-234.797,568.945
					c-147.333,147.26-355.617,232.667-562.259,231.055l0,0c205.933,1.852,413.724-83.42,560.674-230.591
					c147.676-148.132,234.324-358.707,234.407-569.409c-0.082-210.702-86.731-421.277-234.407-569.409
					C1250.006,120.193,1042.215,34.921,836.282,36.772L836.282,36.772z"/>
				<path fill="#613AFF" d="M836.282,36.772c207.253-1.371,415.936,84.181,563.569,231.52
					c148.038,147.977,234.99,358.232,235.072,568.48c-0.082,210.247-87.034,420.503-235.072,568.48
					c-147.633,147.339-356.317,232.891-563.569,231.52l0,0c206.642,1.612,414.926-83.795,562.259-231.055
					c147.889-148.05,234.715-358.469,234.797-568.945c-0.082-210.476-86.909-420.895-234.797-568.945
					C1251.208,120.568,1042.924,35.161,836.282,36.772L836.282,36.772z"/>
				<path fill="#5930FF" d="M836.282,36.772c207.765-1.13,416.753,84.577,564.605,231.986
					c148.124,147.913,235.149,357.997,235.231,568.014c-0.082,210.017-87.107,420.101-235.231,568.014
					c-147.852,147.409-356.841,233.116-564.605,231.986l0,0c207.253,1.371,415.936-84.181,563.569-231.52
					c148.038-147.977,234.99-358.232,235.072-568.48c-0.082-210.247-87.034-420.503-235.072-568.48
					C1252.218,120.954,1043.534,35.401,836.282,36.772L836.282,36.772z"/>
				<path fill="#5127FF" d="M836.282,36.772c208.178-0.888,417.378,84.983,565.368,232.452
					c148.147,147.859,235.192,357.763,235.275,567.548c-0.083,209.785-87.128,419.689-235.275,567.548
					c-147.99,147.469-357.19,233.34-565.368,232.452l0,0c207.765,1.13,416.753-84.577,564.605-231.986
					c148.124-147.913,235.149-357.997,235.231-568.014c-0.082-210.017-87.107-420.101-235.231-568.014
					C1253.035,121.35,1044.046,35.643,836.282,36.772L836.282,36.772z"/>
				<path fill="#491DFF" d="M836.282,36.772c208.492-0.646,417.81,85.398,565.856,232.918
					c148.107,147.813,235.122,357.53,235.205,567.082c-0.082,209.552-87.097,419.269-235.205,567.082
					c-148.046,147.52-357.364,233.564-565.856,232.918l0,0c208.178,0.888,417.378-84.983,565.368-232.452
					c148.147-147.859,235.192-357.763,235.275-567.548c-0.083-209.785-87.128-419.689-235.275-567.548
					C1253.66,121.755,1044.459,35.885,836.282,36.772L836.282,36.772z"/>
				<path fill="#4114FF" d="M836.282,36.772c208.707-0.403,418.05,85.823,566.072,233.384
					c148.005,147.777,234.938,357.3,235.021,566.616c-0.082,209.316-87.015,418.839-235.021,566.616
					c-148.021,147.561-357.364,233.787-566.072,233.384l0,0c208.492,0.646,417.81-85.398,565.856-232.918
					c148.107-147.813,235.122-357.53,235.205-567.082c-0.082-209.552-87.097-419.269-235.205-567.082
					C1254.092,122.171,1044.774,36.127,836.282,36.772L836.282,36.772z"/>
				<path fill="#390AFF" d="M836.282,36.772c208.824-0.161,418.098,86.257,566.014,233.849
					c147.841,147.75,234.641,357.071,234.724,566.151c-0.082,209.08-86.882,418.401-234.724,566.151
					c-147.917,147.593-357.19,234.01-566.014,233.849l0,0c208.707,0.403,418.05-85.823,566.072-233.384
					c148.005-147.777,234.938-357.3,235.021-566.616c-0.082-209.316-87.015-418.839-235.021-566.616
					C1254.332,122.595,1044.989,36.369,836.282,36.772L836.282,36.772z"/>
				<path fill="#3100FF" d="M836.282,36.772c208.842,0.082,417.954,86.699,565.685,234.315
					c147.615,147.732,234.233,356.844,234.315,565.685c-0.082,208.842-86.699,417.954-234.315,565.685
					c-147.732,147.615-356.844,234.233-565.685,234.315l0,0c208.824,0.161,418.098-86.257,566.014-233.849
					c147.841-147.75,234.641-357.071,234.724-566.151c-0.082-209.08-86.882-418.401-234.724-566.151
					C1254.38,123.029,1045.106,36.612,836.282,36.772L836.282,36.772z"/>
				<path fill="#3100FF" d="M836.282,1636.772c208.842-0.082,417.954-86.699,565.685-234.315
					c147.615-147.732,234.233-356.844,234.315-565.685c-0.082-208.842-86.699-417.954-234.315-565.685
					C1254.235,123.471,1045.123,36.854,836.282,36.772c208.842,0.082,417.954,86.699,565.685,234.315
					c147.615,147.732,234.233,356.844,234.315,565.685c-0.082,208.842-86.699,417.954-234.315,565.685
					C1254.235,1550.073,1045.123,1636.69,836.282,1636.772z"/>
				<path fill="none" d="M836.282,1636.772L836.282,1636.772c-208.842-0.082-417.954-86.699-565.685-234.315
					C122.981,1254.726,36.364,1045.614,36.282,836.772c0.082-208.842,86.699-417.954,234.315-565.685
					C418.328,123.471,627.44,36.854,836.282,36.772l0,0c208.842,0.082,417.954,86.699,565.685,234.315
					c147.615,147.732,234.233,356.844,234.315,565.685c-0.082,208.842-86.699,417.954-234.315,565.685
					C1254.235,1550.073,1045.123,1636.69,836.282,1636.772z"/>
			</g>
		</g>
	</g>
</g>
</svg>
